G04 ================== begin FILE IDENTIFICATION RECORD ==================*
G04 Layout Name:  D:/baiduyun/rf_gen/allegro/vvlogic_x1_v3.1.brd*
G04 Film Name:    pastemask_top*
G04 File Format:  Gerber RS274X*
G04 File Origin:  Cadence Allegro 16.6-S047*
G04 Origin Date:  Mon Dec 21 16:15:09 2015*
G04 *
G04 Layer:  PIN/PASTEMASK_TOP*
G04 *
G04 Offset:    (0.000 0.000)*
G04 Mirror:    No*
G04 Mode:      Positive*
G04 Rotation:  0*
G04 FullContactRelief:  No*
G04 UndefLineWidth:     0.000*
G04 ================== end FILE IDENTIFICATION RECORD ====================*
%FSLAX25Y25*MOIN*%
%IR0*IPPOS*OFA0.00000B0.00000*MIA0B0*SFA1.00000B1.00000*%
%ADD38O,.072835X.018898*%
%ADD20R,.137795X.137795*%
%ADD39R,.11811X.11811*%
%AMMACRO13*
4,1,40,-.027559,.010827,
-.027559,-.010827,
-.027499,-.011511,
-.027322,-.012174,
-.027032,-.012796,
-.026638,-.013358,
-.026153,-.013843,
-.02559,-.014237,
-.024968,-.014527,
-.024306,-.014704,
-.023622,-.014764,
.023622,-.014764,
.024306,-.014704,
.024969,-.014527,
.025591,-.014237,
.026153,-.013843,
.026638,-.013358,
.027032,-.012795,
.027322,-.012173,
.027499,-.011511,
.027559,-.010827,
.027559,.010827,
.027499,.011511,
.027322,.012174,
.027032,.012796,
.026638,.013358,
.026153,.013843,
.02559,.014237,
.024968,.014527,
.024306,.014704,
.023622,.014764,
-.023622,.014764,
-.024306,.014704,
-.024969,.014527,
-.025591,.014237,
-.026153,.013843,
-.026638,.013358,
-.027032,.012795,
-.027322,.012173,
-.027499,.011511,
-.027559,.010827,
0.0*
%
%ADD13MACRO13*%
%ADD35R,.169291X.059055*%
%ADD25R,.01X.04*%
%ADD26R,.04X.01*%
%ADD11R,.023X.022*%
%AMMACRO19*
21,1,.055906,.125984,0.0,0.0,56.7*%
%ADD19MACRO19*%
%ADD14R,.022X.023*%
%ADD33R,.028X.01*%
%ADD10R,.04X.026*%
%ADD41R,.026X.04*%
%ADD12R,.08X.013*%
%ADD32R,.012X.055*%
%ADD24R,.06X.047*%
%ADD27R,.047X.06*%
%ADD28R,.059X.032*%
%ADD30R,.032X.059*%
%ADD15R,.028X.039*%
%ADD29R,.039X.079*%
%ADD31R,.079X.039*%
%ADD34R,.066X.098*%
%ADD22R,.011811X.035433*%
%ADD21R,.035433X.011811*%
%ADD16O,.023622X.049213*%
%ADD36O,.085433X.024016*%
%ADD40R,.031496X.023622*%
%ADD23R,.047244X.055118*%
%ADD37R,.025591X.015748*%
%AMMACRO18*
21,1,.055906,.125984,0.0,0.0,123.3*%
%ADD18MACRO18*%
%ADD17R,.098425X.03937*%
%LPD*%
G75*
G54D10*
X36829Y334292D03*
Y337992D03*
Y341692D03*
X47029Y334292D03*
Y341692D03*
X281317Y237442D03*
Y241142D03*
Y244842D03*
X291517Y237442D03*
Y244842D03*
G54D11*
X26181Y338061D03*
X20276D03*
X26181Y341861D03*
X20276D03*
X41341Y133934D03*
Y137734D03*
X47246Y133934D03*
Y137734D03*
X40354Y295207D03*
Y291407D03*
X48228Y295207D03*
Y291407D03*
X47835Y326113D03*
Y322313D03*
X53740Y326113D03*
Y322313D03*
X62011Y145745D03*
Y149545D03*
X62992Y202687D03*
Y198887D03*
X90158Y108790D03*
Y104990D03*
X92323Y132746D03*
Y136546D03*
X87402Y132746D03*
Y136546D03*
X77559D03*
Y132746D03*
X82480Y136546D03*
Y132746D03*
X92323Y183927D03*
X82480D03*
X87402D03*
X92323Y187727D03*
X82480D03*
X87402D03*
X92520Y307018D03*
Y303218D03*
Y311092D03*
Y314892D03*
X100000Y82352D03*
Y86152D03*
X105906Y92194D03*
Y82352D03*
Y86152D03*
X105906Y104990D03*
Y108790D03*
X98032D03*
Y104990D03*
X105906Y95994D03*
X97244Y132746D03*
Y136546D03*
X102165Y132746D03*
Y136546D03*
X107087Y132746D03*
Y136546D03*
X97244Y183927D03*
X105118D03*
X110039D03*
X101182Y194754D03*
Y198554D03*
X97244Y187727D03*
X105118D03*
X110039D03*
X107087Y194754D03*
Y198554D03*
X103346Y303218D03*
Y307018D03*
X108268Y303218D03*
Y307018D03*
X123622Y60561D03*
Y56761D03*
X111811Y86152D03*
Y82352D03*
X112992Y132746D03*
Y136546D03*
X125787Y160305D03*
Y164105D03*
Y155246D03*
Y151446D03*
X115945Y183927D03*
X120866D03*
X118898Y194754D03*
Y198554D03*
X112992Y194754D03*
Y198554D03*
X125788Y194754D03*
Y198554D03*
X115945Y187727D03*
X120866D03*
X113189Y303218D03*
Y307018D03*
X123032Y303218D03*
Y307018D03*
X127953Y303218D03*
Y307018D03*
X126968Y374084D03*
X115158D03*
X126968Y377884D03*
X115158D03*
X139370Y56761D03*
Y60561D03*
X131496D03*
Y56761D03*
X138583Y155246D03*
Y151446D03*
Y160305D03*
Y164105D03*
Y186880D03*
Y181821D03*
Y178021D03*
Y190680D03*
X131693Y194754D03*
Y198554D03*
X133858Y217588D03*
Y221388D03*
X137795Y303218D03*
Y307018D03*
X132874Y303218D03*
Y307018D03*
Y374084D03*
Y377884D03*
X151378Y181821D03*
Y178021D03*
Y186880D03*
Y190680D03*
X171549Y250973D03*
Y254773D03*
X220680Y291480D03*
Y287680D03*
X218701Y370207D03*
Y366407D03*
X212795D03*
Y370207D03*
X242614Y169792D03*
Y173592D03*
X226865Y169792D03*
Y173592D03*
X234449Y296388D03*
Y292588D03*
X242323Y296388D03*
Y292588D03*
X258361Y169792D03*
Y173592D03*
X274109Y169792D03*
Y173592D03*
X281496Y225462D03*
Y229262D03*
X287402Y225462D03*
Y229262D03*
X299700Y249182D03*
Y245382D03*
X316433Y159161D03*
Y162961D03*
X309542Y249182D03*
Y245382D03*
X304621Y249182D03*
Y245382D03*
X304134Y280580D03*
Y284380D03*
X332202Y162967D03*
Y159167D03*
X330409Y218020D03*
Y221820D03*
X319882Y280580D03*
Y284380D03*
X347929Y159161D03*
Y162961D03*
X357180Y192626D03*
Y196426D03*
X341432Y192626D03*
Y196426D03*
X346157Y218020D03*
Y221820D03*
X363677Y159161D03*
Y162961D03*
X372928Y192626D03*
Y196426D03*
X361905Y218020D03*
Y221820D03*
X388676Y192626D03*
Y196426D03*
X377653Y218020D03*
Y221820D03*
X427653Y174379D03*
Y170579D03*
X425197Y226447D03*
Y230247D03*
Y248947D03*
Y245147D03*
Y258927D03*
X419291D03*
Y245147D03*
Y248947D03*
X416339Y280443D03*
Y276643D03*
X425197Y262727D03*
X419291D03*
X425197Y276506D03*
Y272706D03*
X450487Y193276D03*
Y189476D03*
X444582Y193276D03*
Y189476D03*
X456393Y193276D03*
Y189476D03*
X462298D03*
Y193276D03*
X468204Y189476D03*
Y193276D03*
X462298Y236584D03*
Y232784D03*
X468204Y236584D03*
Y232784D03*
X476078Y189476D03*
Y193276D03*
X483952Y189476D03*
Y193276D03*
X478347Y316861D03*
Y313061D03*
X484252Y316861D03*
Y313061D03*
X489858Y189476D03*
Y193276D03*
X495763Y189476D03*
Y193276D03*
X505906Y218435D03*
Y214635D03*
X495763Y230815D03*
Y234615D03*
X489858Y230815D03*
Y234615D03*
Y258374D03*
Y262174D03*
Y278059D03*
Y281859D03*
X500291Y337902D03*
Y331859D03*
Y328059D03*
Y341702D03*
X519685Y262864D03*
Y266664D03*
G54D20*
X96522Y161012D03*
X470293Y213573D03*
G54D21*
X86916Y154122D03*
Y156090D03*
Y158059D03*
Y160028D03*
Y161996D03*
Y163964D03*
Y165933D03*
Y167902D03*
X106207Y165933D03*
Y163964D03*
Y161996D03*
Y160028D03*
Y158059D03*
Y156090D03*
Y154122D03*
Y167902D03*
X460608Y206684D03*
Y208652D03*
Y210620D03*
Y212589D03*
Y214558D03*
Y216526D03*
Y218495D03*
Y220463D03*
X479899D03*
Y218495D03*
Y216526D03*
Y214558D03*
Y212589D03*
Y210620D03*
Y208652D03*
Y206684D03*
G54D30*
X115158Y207677D03*
X121063D03*
X126968D03*
G54D12*
X52760Y89565D03*
Y92124D03*
Y94684D03*
Y97245D03*
Y99804D03*
Y102365D03*
Y104924D03*
X77660Y92124D03*
Y89565D03*
Y104924D03*
Y102365D03*
Y99804D03*
Y97245D03*
Y94684D03*
X225094Y249836D03*
Y252395D03*
Y254955D03*
Y257515D03*
Y260075D03*
Y262636D03*
Y265195D03*
X249994Y260075D03*
Y257515D03*
Y254955D03*
Y252395D03*
Y249836D03*
Y265195D03*
Y262636D03*
G54D40*
X463858Y316929D03*
X473307D03*
G54D22*
X91640Y151366D03*
X89672D03*
Y170657D03*
X91640D03*
X103451Y151366D03*
X101483D03*
X99514D03*
X97546D03*
X95577D03*
X93609D03*
Y170657D03*
X95577D03*
X97546D03*
X99514D03*
X101483D03*
X103451D03*
X469269Y203928D03*
X467301D03*
X465332D03*
X463364D03*
Y223219D03*
X465332D03*
X467301D03*
X469269D03*
X477143Y203928D03*
X475175D03*
X473206D03*
X471238D03*
Y223219D03*
X473206D03*
X475175D03*
X477143D03*
G54D31*
X121063Y221575D03*
G54D13*
X54926Y161326D03*
Y169003D03*
G54D23*
X78346Y304665D03*
Y313327D03*
X85039Y304665D03*
Y313327D03*
G54D32*
X161511Y141376D03*
X164070D03*
X166629D03*
Y163030D03*
X164070D03*
X161511D03*
X169188Y141376D03*
X171747D03*
X174306D03*
X176865D03*
X179424D03*
Y163030D03*
X176865D03*
X174306D03*
X171747D03*
X169188D03*
X410134Y137637D03*
X412693D03*
Y159290D03*
X410134D03*
X415252Y137637D03*
X417811D03*
X420369D03*
X422928D03*
X425487D03*
X428047D03*
Y159290D03*
X425487D03*
X422928D03*
X420369D03*
X417811D03*
X415252D03*
X414858Y193345D03*
X417417D03*
X419976D03*
X422535D03*
X425094D03*
X427653D03*
X430212D03*
Y214998D03*
X427653D03*
X425094D03*
X422535D03*
X419976D03*
X417417D03*
X414858D03*
X432771Y193345D03*
Y214998D03*
G54D41*
X488480Y330765D03*
X484780D03*
Y340965D03*
X492180Y330765D03*
Y340965D03*
G54D14*
X58142Y140755D03*
X61942D03*
X71722Y148425D03*
Y166142D03*
X61880Y161220D03*
X65680D03*
X71722D03*
Y172047D03*
Y183858D03*
Y177953D03*
X56171Y291339D03*
X59971D03*
X75522Y148425D03*
Y166142D03*
Y161220D03*
Y172047D03*
Y183858D03*
Y177953D03*
X81761Y324803D03*
X85561D03*
X81761Y356299D03*
X85561D03*
X81761Y350394D03*
X85561D03*
X81761Y341535D03*
X85561D03*
X107352Y121063D03*
X111152D03*
X118837Y145478D03*
X115037D03*
X129793Y145472D03*
X129990Y133858D03*
Y139764D03*
X118829Y150394D03*
X115029D03*
X129793D03*
Y165158D03*
Y160236D03*
Y155315D03*
X133593Y145472D03*
X133790Y133858D03*
Y139764D03*
X133593Y150394D03*
Y165158D03*
Y160236D03*
Y155315D03*
X147714Y155519D03*
X142588Y176968D03*
X146388D03*
X142588Y186811D03*
X146388D03*
X142588Y181890D03*
X146388D03*
Y191732D03*
X142588D03*
X151514Y155519D03*
X155869Y229251D03*
X159669D03*
X167543D03*
X163743D03*
X163800Y282200D03*
X167600D03*
X156428Y332677D03*
X152628D03*
X156428Y356299D03*
X152628D03*
X172860Y84290D03*
X169060D03*
X172928D03*
X185792Y141180D03*
X171617Y223346D03*
X175417D03*
X171617Y229251D03*
X175417D03*
X205084Y122676D03*
X189592Y141180D03*
X191073Y333858D03*
X187273D03*
X191073Y322047D03*
X187273D03*
X191073Y345669D03*
X187273D03*
X208884Y122676D03*
X208952D03*
X220891Y173660D03*
X217091D03*
X236640D03*
X232840D03*
Y179566D03*
X236640D03*
X252388Y173660D03*
X248588D03*
Y179566D03*
X252388D03*
X260595Y265195D03*
X261092Y345669D03*
X280084Y173660D03*
X268135Y179566D03*
X264335D03*
Y173660D03*
X268135D03*
X281565Y219488D03*
X264395Y265195D03*
X264892Y345669D03*
X283884Y173660D03*
X285365Y219488D03*
X296191D03*
X292391D03*
X310459Y163030D03*
X306659D03*
X305871Y209487D03*
X309671D03*
X305871Y228187D03*
X309671D03*
X310108Y280512D03*
X313908D03*
X338155Y163030D03*
X326207D03*
X322407D03*
X338155Y168935D03*
X322407D03*
X326207D03*
X335458Y196494D03*
X331658D03*
X336399Y221899D03*
X324435Y221888D03*
X320635D03*
X336399Y227805D03*
X337667Y260827D03*
Y280512D03*
Y275591D03*
Y270669D03*
Y265748D03*
Y295276D03*
Y285433D03*
Y290354D03*
X332018Y350292D03*
X328218D03*
X341955Y163030D03*
X353903D03*
Y168935D03*
X341955D03*
X351206Y202400D03*
X347406D03*
Y196494D03*
X351206D03*
X340199Y221899D03*
X355931Y221888D03*
X352131D03*
Y227794D03*
X355931D03*
X340199Y227805D03*
X341467Y260827D03*
Y280512D03*
Y275591D03*
Y270669D03*
Y265748D03*
Y295276D03*
Y285433D03*
Y290354D03*
X373451Y163030D03*
X369651D03*
X357703D03*
Y168935D03*
X366972Y196504D03*
X363172D03*
Y202409D03*
X366972D03*
X371679Y221888D03*
X367879D03*
Y227794D03*
X371679D03*
X386049Y122676D03*
X382249D03*
X381852D03*
X394669Y196504D03*
X382720D03*
X378920D03*
Y202409D03*
X382720D03*
X387427Y221888D03*
X383627D03*
X394060Y260865D03*
Y271691D03*
Y266770D03*
Y284487D03*
X403003Y158705D03*
X399203D03*
X398469Y196504D03*
X407132Y214418D03*
X403332D03*
X397860Y260865D03*
Y271691D03*
Y266770D03*
Y284487D03*
X422860Y84290D03*
X419060D03*
X418628D03*
X429065Y235236D03*
X425265D03*
X429065Y240157D03*
X425265D03*
X429065Y253937D03*
X425265D03*
X429065Y267716D03*
X425265D03*
X446619Y220904D03*
X450419D03*
X444513Y214998D03*
X440713D03*
X444513Y209093D03*
X440713D03*
X446642Y226820D03*
X450442D03*
X472209Y232715D03*
X476009D03*
X485989Y240589D03*
Y246495D03*
Y252400D03*
X489242Y316929D03*
X497963Y214567D03*
X494163D03*
X489789Y240589D03*
Y246495D03*
Y252400D03*
X501900Y316929D03*
X498100D03*
X493042D03*
G54D15*
X72835Y237647D03*
X69135D03*
X65435D03*
Y247047D03*
X69135D03*
X72835D03*
G54D24*
X104331Y220417D03*
Y208717D03*
G54D33*
X159943Y237126D03*
Y239094D03*
Y241062D03*
Y243030D03*
Y244998D03*
X171343Y237126D03*
Y239094D03*
Y241062D03*
Y243030D03*
Y244998D03*
G54D16*
X71850Y291968D03*
X68110Y284803D03*
X75591D03*
X342913Y357812D03*
X346654Y350646D03*
X339173D03*
G54D34*
X165643Y241062D03*
G54D25*
X110236Y317328D03*
X108268D03*
X106299D03*
X104331D03*
Y363775D03*
X106299D03*
X108268D03*
X110236D03*
X127953Y317328D03*
X125984D03*
X124016D03*
X122047D03*
X120079D03*
X118110D03*
X116142D03*
X114173D03*
X112205D03*
Y363775D03*
X114173D03*
X116142D03*
X118110D03*
X120079D03*
X122047D03*
X124016D03*
X125984D03*
X127953D03*
X133858Y317328D03*
X131890D03*
X129921D03*
Y363775D03*
X131890D03*
X133858D03*
X222638Y307682D03*
X220669D03*
X218701D03*
X216732D03*
X214764D03*
X212795D03*
Y354129D03*
X214764D03*
X216732D03*
X218701D03*
X220669D03*
X222638D03*
X242323Y307682D03*
X240354D03*
X238386D03*
X236417D03*
X234449D03*
X232480D03*
X230512D03*
X228543D03*
X226575D03*
X224606D03*
Y354129D03*
X226575D03*
X228543D03*
X230512D03*
X232480D03*
X234449D03*
X236417D03*
X238386D03*
X240354D03*
X242323D03*
G54D17*
X61220Y332480D03*
Y343504D03*
G54D26*
X95871Y325787D03*
Y327756D03*
Y329724D03*
Y331693D03*
Y333661D03*
Y335630D03*
Y337598D03*
Y339567D03*
Y341535D03*
Y343504D03*
Y345472D03*
Y347441D03*
Y349409D03*
Y351378D03*
Y353346D03*
Y355315D03*
X142318Y337598D03*
Y335630D03*
Y333661D03*
Y331693D03*
Y329724D03*
Y327756D03*
Y325787D03*
Y355315D03*
Y353346D03*
Y351378D03*
Y349409D03*
Y347441D03*
Y345472D03*
Y343504D03*
Y341535D03*
Y339567D03*
X204335Y316142D03*
Y318110D03*
Y320079D03*
Y322047D03*
Y324016D03*
Y325984D03*
Y327953D03*
Y329921D03*
Y331890D03*
Y333858D03*
Y335827D03*
Y337795D03*
Y339764D03*
Y341732D03*
Y343701D03*
Y345669D03*
X250783Y318110D03*
Y316142D03*
Y337795D03*
Y335827D03*
Y333858D03*
Y331890D03*
Y329921D03*
Y327953D03*
Y325984D03*
Y324016D03*
Y322047D03*
Y320079D03*
Y345669D03*
Y343701D03*
Y341732D03*
Y339764D03*
G54D35*
X189265Y233761D03*
Y248363D03*
X468794Y328563D03*
Y343166D03*
G54D18*
X91080Y58268D03*
X109080Y70866D03*
G54D36*
X179665Y277146D03*
Y292146D03*
Y287146D03*
Y282146D03*
X208524Y277146D03*
Y282146D03*
Y287146D03*
Y292146D03*
G54D27*
X119150Y105315D03*
X130850D03*
X462944Y356534D03*
X489802Y270116D03*
X478102D03*
X474644Y356534D03*
X486566D03*
X498266D03*
G54D37*
X313489Y216769D03*
Y219329D03*
Y221889D03*
X305989D03*
Y219329D03*
Y216769D03*
G54D28*
X131890Y115158D03*
Y121063D03*
Y126968D03*
G54D19*
X91080Y70866D03*
X109080Y58268D03*
G54D29*
X117992Y121063D03*
G54D38*
X354373Y261357D03*
Y263916D03*
Y266475D03*
Y269034D03*
Y271593D03*
Y274152D03*
Y276711D03*
Y279270D03*
Y281829D03*
Y284388D03*
Y286947D03*
Y289506D03*
Y292065D03*
Y294624D03*
X381247Y261357D03*
Y279270D03*
Y276711D03*
Y274152D03*
Y271593D03*
Y269034D03*
Y266475D03*
Y263916D03*
Y294624D03*
Y292065D03*
Y289506D03*
Y286947D03*
Y284388D03*
Y281829D03*
G54D39*
X372059Y324946D03*
X371959Y350546D03*
X397759Y324946D03*
Y350546D03*
M02*
