G04 ================== begin FILE IDENTIFICATION RECORD ==================*
G04 Layout Name:  D:/baiduyun/rf_gen/allegro/vvlogic_x1_v3.1.brd*
G04 Film Name:    BOTTOM*
G04 File Format:  Gerber RS274X*
G04 File Origin:  Cadence Allegro 16.6-S047*
G04 Origin Date:  Mon Dec 21 16:14:25 2015*
G04 *
G04 Layer:  ETCH/BOTTOM*
G04 Layer:  PIN/BOTTOM*
G04 Layer:  VIA CLASS/BOTTOM*
G04 *
G04 Offset:    (0.000 0.000)*
G04 Mirror:    No*
G04 Mode:      Positive*
G04 Rotation:  0*
G04 FullContactRelief:  No*
G04 UndefLineWidth:     0.000*
G04 ================== end FILE IDENTIFICATION RECORD ====================*
%FSLAX25Y25*MOIN*%
%IR0*IPPOS*OFA0.00000B0.00000*MIA0B0*SFA1.00000B1.00000*%
%ADD12C,.15*%
%ADD10C,.15748*%
%ADD14C,.06*%
%ADD13C,.026*%
%ADD11C,.08*%
%ADD16R,.062X.062*%
%ADD15C,.062205*%
%ADD18C,.07874*%
%ADD17R,.098425X.098425*%
%ADD19C,.006*%
%ADD20C,.01*%
%ADD21C,.03*%
%ADD22C,.012*%
%ADD24C,.072004*%
%ADD25C,.038004*%
%ADD23C,.092004*%
%ADD26C,.090744*%
G75*
%LPD*%
G75*
G36*
G01X546516Y303935D02*
G03Y298742I-3721J-2597D01*
G02X547244Y298513I328J-229D01*
G01Y284164D01*
G02X546516Y283935I-400J0D01*
G03Y278742I-3721J-2597D01*
G02X547244Y278513I328J-229D01*
G01Y43307D01*
X3937D01*
Y385827D01*
X547244D01*
Y304164D01*
G02X546516Y303935I-400J0D01*
G37*
%LPC*%
G75*
G36*
G01X417112Y199634D02*
X417111Y199716D01*
X415727Y201100D01*
X412997D01*
G03X412856Y200758I0J-200D01*
G01X413044Y200570D01*
X413126Y200569D01*
G02X411207Y198606I-20J-1900D01*
G01X411203Y198734D01*
X411137Y198800D01*
X271161D01*
X270762Y199199D01*
X270675D01*
X258900Y210974D01*
Y240261D01*
X240884Y258278D01*
X240832Y258292D01*
G02X243193Y259770I494J1835D01*
G01X243173Y259666D01*
X260117Y242722D01*
G03X260800Y243005I283J283D01*
G01Y249461D01*
X257662Y252599D01*
X257580Y252600D01*
G02X259500Y254520I20J1900D01*
G01X259501Y254438D01*
X263400Y250539D01*
Y212839D01*
X272539Y203700D01*
X416804D01*
X418950Y201554D01*
X419032Y201554D01*
G02X417112Y199634I-19J-1900D01*
G37*
G36*
G01X156373Y241480D02*
X154597Y239704D01*
X69135D01*
G02Y244104I0J2200D01*
G01X152774D01*
X153262Y244592D01*
G02X156373Y241480I1556J-1556D01*
G37*
G36*
G01X31520Y340288D02*
G03X30980I-270J-296D01*
G02Y343096I-1281J1404D01*
G03X31520I270J296D01*
G02Y340288I1281J-1404D01*
G37*
G36*
G01X221900Y340386D02*
Y377261D01*
X221100Y378061D01*
Y380114D01*
G02X223700I1300J1386D01*
G01Y379139D01*
X224500Y378339D01*
Y340386D01*
G02X221900I-1300J-1386D01*
G37*
G36*
G01X225451Y333500D02*
X227100Y335149D01*
Y380314D01*
G02X229700I1300J1386D01*
G01Y334072D01*
X228087Y332458D01*
X228121Y332344D01*
G02X225451Y333500I-1821J-544D01*
G37*
G36*
G01X212426Y325582D02*
X212416Y325645D01*
X203361Y334700D01*
X134761D01*
X133162Y336299D01*
X133080Y336300D01*
G02X135000Y338220I19J1900D01*
G01X135001Y338138D01*
X135839Y337300D01*
X204439D01*
X213966Y327773D01*
X214063Y327785D01*
G02X212426Y325582I237J-1885D01*
G37*
G36*
G01X130675Y331056D02*
G03X130797Y331717I-153J370D01*
G02X134000Y333120I1303J1383D01*
G01X134001Y333038D01*
X134939Y332100D01*
X140786D01*
X143185Y329700D01*
X201039D01*
X207239Y323500D01*
X208514D01*
G02X211449Y321100I1386J-1300D01*
G03X211776Y320468I326J-232D01*
G01X213562D01*
G02X213853Y318468I1738J-768D01*
G01X205218D01*
X199186Y324500D01*
X134786D01*
X131838Y327448D01*
X131735Y327430D01*
G02X130675Y331056I-335J1870D01*
G37*
G36*
G01X229700Y316716D02*
Y325214D01*
X235400Y330914D01*
Y359314D01*
X242748Y366662D01*
X242730Y366765D01*
G02X244265Y365230I1871J335D01*
G01X244162Y365248D01*
X237400Y358486D01*
Y330086D01*
X231700Y324386D01*
Y316716D01*
G02X229700I-1000J-1616D01*
G37*
G36*
G01X226300Y296716D02*
Y298788D01*
X224539Y300549D01*
X224436Y300531D01*
G02X225972Y302066I-335J1871D01*
G01X225953Y301964D01*
X228300Y299617D01*
Y296716D01*
G02X226300I-1000J-1616D01*
G37*
G36*
G01X369900Y289416D02*
Y363214D01*
X375686Y369000D01*
X378384D01*
G02Y367000I1616J-1000D01*
G01X376514D01*
X371900Y362386D01*
Y289416D01*
G02X369900I-1000J-1616D01*
G37*
G36*
G01X199354Y308947D02*
G03X199168Y309146I-200J0D01*
G02X201164Y310675I132J1896D01*
G01X201144Y310570D01*
X201354Y310360D01*
Y278761D01*
G02X199354I-1000J-1616D01*
G01Y280078D01*
G03X198779Y280438I-400J0D01*
G02X197271Y283922I-833J1708D01*
G01X197400Y283971D01*
Y292586D01*
X192438Y297548D01*
X192335Y297530D01*
G02X193870Y299065I-335J1871D01*
G01X193852Y298962D01*
X198671Y294143D01*
G03X199354Y294426I283J283D01*
G01Y308947D01*
G37*
G36*
G01X387465Y371430D02*
X387362Y371448D01*
X387100Y371186D01*
Y368386D01*
X376700Y357986D01*
Y278786D01*
X375452Y277538D01*
X375470Y277435D01*
G02X373935Y278970I-1870J-335D01*
G01X374038Y278952D01*
X374700Y279614D01*
Y358814D01*
X385100Y369214D01*
Y372014D01*
X385948Y372862D01*
X385930Y372965D01*
G02X387465Y371430I1870J335D01*
G37*
G36*
G01X136535Y275570D02*
X136638Y275552D01*
X140249Y279163D01*
Y309709D01*
G03X139834Y310109I-400J0D01*
G02X141634Y311673I-70J1899D01*
G01X141616Y311570D01*
X142249Y310937D01*
Y278334D01*
X138052Y274138D01*
X138070Y274035D01*
G02X136535Y275570I-1870J-335D01*
G37*
G36*
G01X126284Y268000D02*
X101886D01*
X78138Y291748D01*
X78035Y291730D01*
G02X79571Y293265I-335J1870D01*
G01X79552Y293162D01*
X102714Y270000D01*
X126284D01*
G02Y268000I1616J-1000D01*
G37*
G36*
G01X241500Y282714D02*
Y271680D01*
G03X242183Y271398I400J0D01*
G01X243300Y272514D01*
Y275014D01*
X245948Y277662D01*
X245930Y277765D01*
G02X247465Y276230I1871J335D01*
G01X247362Y276248D01*
X245300Y274186D01*
Y271686D01*
X241400Y267786D01*
Y266916D01*
G02X238932Y264093I-1000J-1616D01*
G03X238289Y264058I-309J-254D01*
G02X235700Y266716I-1589J1042D01*
G01Y267914D01*
X239500Y271714D01*
Y281886D01*
X238838Y282548D01*
X238735Y282530D01*
G02X240270Y284065I-335J1870D01*
G01X240252Y283962D01*
X241500Y282714D01*
G37*
G36*
G01X44250Y268600D02*
X39961D01*
X37783Y270778D01*
G03X37100Y270495I-283J-283D01*
G01Y265439D01*
X41239Y261300D01*
X46339D01*
X46762Y260877D01*
G02X44660Y258222I1538J-3377D01*
G03X44268Y258700I-392J78D01*
G01X40161D01*
X34500Y264361D01*
Y327139D01*
X45500Y338139D01*
Y359961D01*
X42100Y363361D01*
Y369414D01*
G02X43315Y372698I1300J1386D01*
G03X43580Y373381I-18J400D01*
G01X43061Y373900D01*
X40986D01*
G02Y376500I-1386J1300D01*
G01X44139D01*
X50000Y370639D01*
Y336274D01*
X39000Y325274D01*
Y273239D01*
X41039Y271200D01*
X46439D01*
X46762Y270877D01*
G02X44644Y268132I1538J-3377D01*
G03X44250Y268600I-394J68D01*
G37*
G36*
G01X159900Y276484D02*
Y249859D01*
X160066Y249830D01*
G02X157894Y248414I-327J-1872D01*
G01X157900Y248438D01*
Y276484D01*
G02X159900I1000J1616D01*
G37*
G36*
G01X300273Y208486D02*
X273699D01*
X266200Y215986D01*
Y279186D01*
X256600Y288786D01*
Y316584D01*
G02X258600I1000J1616D01*
G01Y315432D01*
G03X259313Y315183I400J0D01*
G02X260465Y312130I1487J-1183D01*
G01X260362Y312148D01*
X260100Y311886D01*
Y290814D01*
X269800Y281114D01*
Y237314D01*
X275137Y231978D01*
X301465D01*
G02Y229977I1616J-1000D01*
G01X274308D01*
X268883Y235402D01*
G03X268200Y235120I-283J-283D01*
G01Y216814D01*
X274528Y210487D01*
X300273D01*
G02Y208486I1616J-1000D01*
G37*
G36*
G01X510100Y371114D02*
Y336480D01*
G03X510783Y336198I400J0D01*
G01X513000Y338414D01*
Y371086D01*
X509338Y374748D01*
X509235Y374730D01*
G02X510770Y376265I-335J1870D01*
G01X510752Y376162D01*
X515000Y371914D01*
Y337586D01*
X498900Y321486D01*
Y204186D01*
X495400Y200686D01*
Y187805D01*
G03X495794Y187405I400J0D01*
G02X493892Y185840I-31J-1900D01*
G01X493911Y185943D01*
X493400Y186454D01*
Y201514D01*
X496900Y205014D01*
Y206920D01*
G03X496217Y207202I-400J0D01*
G01X490858Y201843D01*
Y187120D01*
G02X488857I-1000J-1616D01*
G01Y202077D01*
G03X488174Y202360I-400J0D01*
G01X485100Y199286D01*
Y187018D01*
G02X483100Y187203I-1148J-1514D01*
G01Y200114D01*
X493600Y210614D01*
Y323714D01*
X506800Y336914D01*
Y360586D01*
X502600Y364786D01*
Y370384D01*
G02X505206Y373016I1000J1616D01*
G03X505901Y373051I338J214D01*
G02X509470Y371865I1699J-851D01*
G01X509452Y371762D01*
X510100Y371114D01*
G37*
G36*
G01X177241Y153908D02*
G03X176719Y154204I-391J-82D01*
G02X174800Y157386I-619J1797D01*
G01Y158139D01*
X177100Y160439D01*
Y181539D01*
X216600Y221039D01*
Y262714D01*
G02X219200I1300J1386D01*
G01Y253505D01*
G03X219883Y253222I400J0D01*
G01X226161Y259500D01*
X231814D01*
G02Y256900I1386J-1300D01*
G01X227239D01*
X222100Y251761D01*
Y217361D01*
X182200Y177461D01*
Y157161D01*
X180563Y155524D01*
X180659Y155387D01*
G02X177241Y153908I-1559J-1087D01*
G37*
G36*
G01X406092Y142936D02*
X406092Y143018D01*
X380310Y168800D01*
X277661D01*
X247300Y199161D01*
Y240761D01*
X242862Y245199D01*
X242780Y245200D01*
G02X243062Y248982I19J1900D01*
G03X243400Y249661I55J396D01*
G01X240661Y252400D01*
X233986D01*
G02Y255000I-1386J1300D01*
G01X241739D01*
X252500Y244239D01*
Y206139D01*
X281239Y177400D01*
X385439D01*
X403500Y159339D01*
Y156177D01*
X413836Y145841D01*
X413918Y145840D01*
G02X411998Y143921I-19J-1900D01*
G01X411998Y144002D01*
X400900Y155100D01*
Y158261D01*
X384361Y174800D01*
X280161D01*
X250583Y204378D01*
G03X249900Y204095I-283J-283D01*
G01Y200239D01*
X278739Y171400D01*
X381387D01*
X407930Y144857D01*
X408012Y144856D01*
G02X406092Y142936I-19J-1900D01*
G37*
G36*
G01X63903Y101570D02*
Y92530D01*
G02X61303I-1300J-1386D01*
G01Y101570D01*
G02X63903I1300J1386D01*
G37*
G36*
G01X363331Y275075D02*
G02X359830Y274435I-1631J-975D01*
G01X359848Y274538D01*
X351464Y282922D01*
X351410Y282935D01*
G02X350500Y284100I290J1165D01*
G01Y381127D01*
G02X352900I1200J1473D01*
G01Y284314D01*
X361262Y275952D01*
X361365Y275970D01*
G02X362011Y275975I335J-1871D01*
G03X362419Y276575I65J395D01*
G02X363200Y279249I1631J975D01*
G01Y370886D01*
X361738Y372348D01*
X361635Y372330D01*
G02X363170Y373865I-335J1870D01*
G01X363152Y373762D01*
X365200Y371714D01*
Y279062D01*
G02X363739Y275675I-1150J-1512D01*
G03X363331Y275075I-65J-395D01*
G37*
G36*
G01X74300Y199539D02*
X75699Y200938D01*
X75700Y201020D01*
G02X77856Y202883I1900J-20D01*
G03X78309Y203318I54J396D01*
G02X82070Y203165I1891J182D01*
G01X82052Y203062D01*
X82800Y202314D01*
Y192785D01*
X81180Y191165D01*
Y190919D01*
X80200Y189938D01*
Y167210D01*
X80814Y166596D01*
X81306D01*
X84000Y163902D01*
Y160090D01*
X83100Y159190D01*
Y151914D01*
X93500Y141514D01*
Y130416D01*
G02X91500I-1000J-1616D01*
G01Y140686D01*
X81100Y151086D01*
Y158063D01*
G03X80417Y158346I-400J0D01*
G01X78200Y156129D01*
Y147314D01*
X88900Y136614D01*
Y130316D01*
G02X86900I-1000J-1616D01*
G01Y135786D01*
X85483Y137202D01*
G03X84800Y136920I-283J-283D01*
G01Y109339D01*
X92448Y101691D01*
Y97380D01*
G02X89847I-1300J-1386D01*
G01Y100614D01*
X82200Y108261D01*
Y137261D01*
X74300Y145161D01*
Y191550D01*
G03X73604Y191820I-400J0D01*
G02X73200Y191484I-1404J1280D01*
G01Y190386D01*
X72200Y189386D01*
Y143886D01*
X69300Y140986D01*
Y130816D01*
G02X67300I-1000J-1616D01*
G01Y141814D01*
X70200Y144714D01*
Y190214D01*
X71200Y191214D01*
Y191481D01*
X71114Y191541D01*
G02X73604Y194380I1086J1559D01*
G03X74300Y194650I296J269D01*
G01Y199539D01*
G37*
G36*
G01X65900Y209681D02*
Y209480D01*
G03X66583Y209198I400J0D01*
G01X68600Y211214D01*
Y211684D01*
G02X70600I1000J1616D01*
G01Y210386D01*
X67891Y207676D01*
G03X68144Y206995I283J-283D01*
G02X69000Y203484I-144J-1895D01*
G01Y200332D01*
G03X69713Y200083I400J0D01*
G02X71654Y197055I1487J-1183D01*
G01X71600Y197042D01*
X70300Y195742D01*
X66200Y191642D01*
Y151465D01*
X67388Y150277D01*
X67490Y150296D01*
G02X65955Y148760I335J-1871D01*
G01X65973Y148863D01*
X64200Y150636D01*
Y190997D01*
G03X63858Y191138I-200J0D01*
G01X63600Y190880D01*
Y111051D01*
X67479Y107172D01*
X67582Y107191D01*
G02X66046Y105655I335J-1870D01*
G01X66064Y105758D01*
X61600Y110222D01*
Y159893D01*
G03X60887Y160142I-400J0D01*
G02Y162509I-1487J1183D01*
G03X61600Y162758I313J249D01*
G01Y191709D01*
X67000Y197109D01*
Y203484D01*
G02X66105Y204956I1000J1616D01*
G03X65424Y205209I-399J-30D01*
G01X54500Y194286D01*
Y129386D01*
X42800Y117686D01*
Y98582D01*
X43464Y97918D01*
X43567Y97936D01*
G02X42031Y96400I335J-1870D01*
G01X42050Y96503D01*
X41642Y96911D01*
G03X41300Y96770I-141J-141D01*
G01Y93739D01*
G02X39300I-1000J-1616D01*
G01Y119014D01*
X50800Y130514D01*
Y196214D01*
X63900Y209314D01*
Y209684D01*
G02X65986Y209741I1000J1616D01*
G01X65900Y209681D01*
G37*
G54D24*
X51181Y207677D03*
X43307Y217520D03*
X51181D03*
G54D25*
X47835Y329100D03*
X53740Y329140D03*
X73746Y132746D03*
X78600Y285500D03*
X89570Y325551D03*
X88585Y341535D03*
X89078Y351886D03*
X88500Y356400D03*
X105906Y111808D03*
X107352Y123948D03*
X105200Y146000D03*
X101383Y139770D03*
X104000Y198400D03*
X103346Y300213D03*
X112992Y129008D03*
X129793Y148000D03*
X129990Y136800D03*
X129793Y167593D03*
X128800Y198554D03*
X127953Y300215D03*
X127466Y312513D03*
X116094Y369060D03*
X123800Y358300D03*
X139370Y64559D03*
X142588Y174212D03*
Y194488D03*
X136688Y217588D03*
X137795Y300215D03*
X147643Y332039D03*
X149612Y356315D03*
X182800Y141376D03*
X171617Y219480D03*
X196500Y322047D03*
X215562Y292146D03*
X216732Y311482D03*
X212795Y361800D03*
X242323Y301800D03*
X256900Y265195D03*
X256600Y345669D03*
X312682Y249182D03*
X333200Y274300D03*
X333224Y295276D03*
X406024Y159172D03*
X411138Y214418D03*
X406254Y350546D03*
X456393Y185503D03*
X459369Y193354D03*
X476078Y186488D03*
X474724Y351630D03*
G54D23*
X17717Y137796D03*
Y291339D03*
X533464Y214567D03*
G54D26*
X504449Y282480D03*
Y300197D03*
X519803Y278937D03*
X529803Y282480D03*
Y300197D03*
X519803Y303740D03*
%LPD*%
G75*
G54D10*
X15748Y55118D03*
Y374016D03*
X535433Y55118D03*
Y374016D03*
G54D20*
G01X351700Y382600D02*
Y284100D01*
G54D11*
X7874Y127953D03*
Y147638D03*
X17717Y137796D03*
X7874Y281496D03*
Y301181D03*
X17717Y291339D03*
X27559Y127953D03*
Y147638D03*
Y281496D03*
Y301181D03*
X523622Y204724D03*
Y224409D03*
X543307Y204724D03*
Y224409D03*
X533464Y214567D03*
G54D21*
G01X69135Y241904D02*
X153685D01*
X154817Y243036D01*
G54D12*
X32638Y189134D03*
Y236536D03*
G54D22*
G01X43400Y370800D02*
Y363900D01*
X46800Y360500D01*
Y337600D01*
X35800Y326600D01*
Y264900D01*
X40700Y260000D01*
X45800D01*
X48300Y257500D01*
G01X39600Y375200D02*
X43600D01*
X48700Y370100D01*
Y336813D01*
X37700Y325813D01*
Y272700D01*
X40500Y269900D01*
X45900D01*
X48300Y267500D01*
G01X62603Y102956D02*
Y91144D01*
G01X77600Y201000D02*
X75600Y199000D01*
Y145700D01*
X83500Y137800D01*
Y108800D01*
X91148Y101152D01*
Y95994D01*
G01X214300Y325900D02*
X214000D01*
X203900Y336000D01*
X135300D01*
X133100Y338200D01*
G01X209900Y322200D02*
X206700D01*
X200500Y328400D01*
X136800D01*
X132100Y333100D01*
G01X176100Y156000D02*
Y157600D01*
X178400Y159900D01*
Y181000D01*
X217900Y220500D01*
Y264100D01*
G01X179100Y154300D02*
Y155900D01*
X180900Y157700D01*
Y178000D01*
X220800Y217900D01*
Y252300D01*
X226700Y258200D01*
X233200D01*
G01X222400Y381500D02*
Y378600D01*
X223200Y377800D01*
Y339000D01*
G01X413898Y143940D02*
X402200Y155639D01*
Y158800D01*
X384900Y176100D01*
X280700D01*
X251200Y205600D01*
Y243700D01*
X241200Y253700D01*
X232600D01*
G01X407992Y142956D02*
X380848Y170100D01*
X278200D01*
X248600Y199700D01*
Y241300D01*
X242800Y247100D01*
G01X241100Y259900D02*
X260200Y240800D01*
Y211513D01*
X271213Y200500D01*
X271300D01*
X271700Y200100D01*
X411676D01*
X413106Y198669D01*
G01X228400Y381700D02*
Y334610D01*
X226300Y332510D01*
Y331800D01*
G01X257600Y254500D02*
X262100Y250000D01*
Y212300D01*
X272000Y202400D01*
X416266D01*
X419012Y199654D01*
G54D13*
X20276Y335047D03*
X23290Y338061D03*
X33029Y337992D03*
X32800Y341692D03*
X29700D03*
X46854Y88191D03*
X40300Y92124D03*
X43902Y96066D03*
X48228Y298244D03*
X40354Y298244D03*
X53740Y319300D03*
X47835Y319298D03*
Y329100D03*
X53740Y329140D03*
X40939Y337992D03*
X39600Y375200D03*
X43400Y370800D03*
X58666Y88191D03*
X62603Y91144D03*
X67916Y105320D03*
X62603Y102956D03*
X68300Y129200D03*
X67825Y148425D03*
X73746Y132746D03*
X59400Y161326D03*
X68147Y177953D03*
X68542Y183858D03*
X72200Y193100D03*
X71200Y198900D03*
X68000Y205100D03*
X62992Y195879D03*
X69600Y213300D03*
X64900Y211300D03*
X69200Y232400D03*
X69135Y241904D03*
Y250763D03*
X86226Y68505D03*
X84258Y75395D03*
X91148Y95994D03*
X84258Y96066D03*
X84646Y100394D03*
X87900Y128700D03*
X92500Y128800D03*
X80900Y129700D03*
X90158Y113783D03*
X79900Y149400D03*
X79400Y161996D03*
X77600Y201000D03*
X78450Y197350D03*
X80200Y203500D03*
X87402Y190800D03*
X82480Y190627D03*
X92300D03*
X78600Y285500D03*
X92520Y300213D03*
X77700Y293600D03*
X77695Y324803D03*
X89570Y325551D03*
X88585Y341535D03*
X89078Y351886D03*
X77695Y341535D03*
Y350394D03*
Y356299D03*
X88500Y356400D03*
X111811Y89168D03*
X100000Y79339D03*
X97120Y82352D03*
X94101Y75395D03*
X105906Y111808D03*
X102061Y129739D03*
X107087Y129846D03*
X98032Y113783D03*
X107352Y123948D03*
X105200Y146000D03*
X111700Y141100D03*
X108600Y147600D03*
X101383Y139770D03*
X110300Y152500D03*
X108500Y175000D03*
X111000Y169400D03*
X108900Y180758D03*
X94400Y180000D03*
X104000Y198400D03*
X104331Y204669D03*
X107087Y191887D03*
X110039Y190561D03*
X103700Y190682D03*
X97244Y190856D03*
X109217Y208717D03*
X98917D03*
X103346Y300213D03*
X108268Y297465D03*
X94491Y316943D03*
X112094Y321750D03*
X104094Y321625D03*
X100100Y351378D03*
X106094Y359951D03*
Y368127D03*
X111100Y377884D03*
X123622Y63576D03*
X114700Y86152D03*
X126200Y110400D03*
X112992Y129008D03*
X125900Y133000D03*
X122178Y145478D03*
X129793Y148000D03*
X129990Y136800D03*
X118600Y164100D03*
X121794Y150394D03*
X116266Y155566D03*
X129793Y167593D03*
X118800Y179800D03*
X112400Y203400D03*
X120809Y190627D03*
X115945Y190645D03*
X127300Y191900D03*
X118898Y201198D03*
X128800Y198554D03*
X115158Y212258D03*
X127900Y269000D03*
X127953Y300215D03*
X130574Y297465D03*
X123032Y297465D03*
X113189D03*
X127466Y312513D03*
X122094Y321822D03*
X128094Y321728D03*
X116094Y369060D03*
X130094Y359437D03*
X123800Y358300D03*
X129810Y379600D03*
X148700Y52800D03*
X139370Y64559D03*
X148300Y61100D03*
X131496Y63576D03*
X148600Y77200D03*
X148700Y89500D03*
X148300Y102600D03*
X136085Y105315D03*
X148400Y117700D03*
Y128300D03*
X138100Y113300D03*
X148700Y135900D03*
X149500Y145800D03*
X137300Y148100D03*
X137036Y139764D03*
X136842Y133858D03*
X136800Y143900D03*
X143600Y158700D03*
X141495Y164105D03*
X141646Y151446D03*
X134100Y187600D03*
X146388Y174088D03*
X133593Y170193D03*
X142588Y174212D03*
X131693Y191693D03*
X146388Y194588D03*
X142588Y194488D03*
X136688Y217588D03*
X136200Y273700D03*
X137795Y300215D03*
X139764Y312008D03*
X147643Y332039D03*
X133858Y322835D03*
X131400Y329300D03*
X133100Y338200D03*
X132100Y333100D03*
X149612Y356315D03*
X147643Y340566D03*
X137801Y341551D03*
X131894Y368127D03*
X157800Y146300D03*
X162800Y135600D03*
X166300Y147500D03*
X164100Y152200D03*
X155300Y159900D03*
X154300Y151200D03*
X167700Y157200D03*
X162300Y157000D03*
X151378Y174022D03*
X163000Y169300D03*
X151378Y193122D03*
X165643Y241062D03*
X155802Y238115D03*
X154817Y243036D03*
X159739Y247958D03*
X163800Y279900D03*
X158900Y278100D03*
X159328Y332677D03*
Y356299D03*
X171500Y52500D03*
X187300Y148800D03*
X175900Y147700D03*
X171747Y147553D03*
X182800Y141376D03*
X186700Y165000D03*
X172200Y156900D03*
X176100Y156000D03*
X179100Y154300D03*
X178436Y223346D03*
X171617Y219480D03*
X181388Y241062D03*
X178441Y229251D03*
X174499Y254516D03*
X185946Y277146D03*
X173954D03*
X184042Y333400D03*
X184253Y322047D03*
X184669Y345669D03*
X194500Y52700D03*
X189592Y145008D03*
X191300Y159300D03*
X199000Y159600D03*
X198600Y166300D03*
X191100Y170300D03*
X197946Y282146D03*
X200354Y277146D03*
X192000Y299400D03*
X199300Y311042D03*
X196500Y322047D03*
X217700Y52700D03*
X206800Y146200D03*
X211200Y159700D03*
X220200D03*
X220100Y166400D03*
X211400Y166300D03*
X217900Y264100D03*
X215562Y292146D03*
X220680Y285320D03*
X216732Y311482D03*
X209400Y305800D03*
X215300Y319700D03*
X224101Y302401D03*
X214300Y325900D03*
X209900Y322200D03*
X223200Y339000D03*
X212795Y361800D03*
X222400Y381500D03*
X233200Y146400D03*
X227300Y160000D03*
X242600Y159900D03*
X242614Y166794D03*
X226865Y166793D03*
X233200Y258200D03*
X232600Y253700D03*
X242800Y247100D03*
X241326Y260126D03*
X240400Y265300D03*
X236700Y265100D03*
X234449Y290351D03*
X242323Y290077D03*
X238400Y284400D03*
X227300Y295100D03*
X242323Y301800D03*
X230700Y315100D03*
X226300Y331800D03*
X244600Y367100D03*
X228400Y381700D03*
X247100Y53000D03*
X258400Y159900D03*
X258361Y166795D03*
X257600Y254500D03*
X247800Y278100D03*
X256900Y265195D03*
X257600Y318200D03*
X260800Y314000D03*
X256600Y345669D03*
X257800Y342100D03*
X245600Y345300D03*
X274600Y52500D03*
X273600Y146400D03*
X273900Y159800D03*
X274109Y166796D03*
X280300Y335300D03*
X267769Y345669D03*
X288200Y159900D03*
X301100Y166300D03*
X288000Y166400D03*
X302000Y52500D03*
X317000Y146300D03*
X302400Y159800D03*
X312200Y158500D03*
X318400Y166900D03*
X316433Y156166D03*
X312696Y209487D03*
X301889D03*
X313680Y228187D03*
X303081Y230978D03*
X312682Y249182D03*
X329500Y52700D03*
X320500Y158800D03*
X328200D03*
X336000D03*
X331500Y166700D03*
X332202Y156146D03*
X330409Y215120D03*
X324518Y217371D03*
X334767Y260827D03*
X333200Y274300D03*
X334952Y265748D03*
X334767Y270669D03*
X333224Y295276D03*
X354500Y52700D03*
X343300Y158700D03*
X351900D03*
X347900Y166600D03*
X347929Y156168D03*
X341432Y189630D03*
X357180Y189630D03*
X346157Y215120D03*
X345200Y272600D03*
X347000Y296600D03*
X345516Y357812D03*
X339373D03*
X351700Y382600D03*
X360600Y146800D03*
X359300Y158400D03*
X373600Y158700D03*
X372900Y166700D03*
X362000Y167000D03*
X363677Y156168D03*
X372928Y189632D03*
X361905Y215120D03*
X373600Y277100D03*
X361700Y274100D03*
X364050Y277550D03*
X374400Y273000D03*
X370900Y287800D03*
X373200Y290900D03*
X373400Y296200D03*
X360535Y292065D03*
X361300Y374200D03*
X377500Y52500D03*
X392600Y163200D03*
X378400Y163100D03*
X386400Y169600D03*
X388676Y189632D03*
X377653Y215120D03*
X387500Y286000D03*
X387935Y292065D03*
X387800Y373300D03*
X380000Y368000D03*
X402000Y52600D03*
X412914Y130160D03*
X397000Y146600D03*
X413898Y143940D03*
X407992Y142956D03*
X402700Y163300D03*
X396181Y158705D03*
X411437Y152566D03*
X406024Y159172D03*
X399200Y169600D03*
X410600Y169700D03*
X413106Y198669D03*
X411138Y214418D03*
X400881Y260865D03*
X400880Y266770D03*
Y271691D03*
X400880Y284487D03*
X406254Y350546D03*
X424400Y52700D03*
X426694Y129176D03*
X420074Y142686D03*
X429647Y142956D03*
X432100Y151800D03*
X432500Y162200D03*
X417218Y153858D03*
X423741Y166579D03*
X425194Y154299D03*
X433100Y177100D03*
X422700Y173000D03*
X423600Y180000D03*
X431808Y183905D03*
X418028Y185874D03*
X425192Y199379D03*
X419012Y199654D03*
X417513Y207997D03*
X418307Y225394D03*
X427753Y208631D03*
X430313Y222766D03*
X431858Y240157D03*
X431564Y235236D03*
X431837Y253937D03*
X431784Y267716D03*
X416339Y282939D03*
X439400Y53200D03*
X439900Y69400D03*
X439700Y88200D03*
Y108200D03*
X440200Y127100D03*
X439400Y141900D03*
X433700Y170400D03*
X450487Y185503D03*
X444582Y185502D03*
X442700Y204300D03*
X434761Y200638D03*
X436900Y219400D03*
X436200Y210200D03*
X452479Y217962D03*
Y211072D03*
X448542D03*
X443631Y220904D03*
X443620Y226820D03*
X456393Y185503D03*
X468204Y185480D03*
X462298D03*
X459369Y193354D03*
X459700Y202100D03*
X466900Y199100D03*
X460100Y224600D03*
X468204Y239592D03*
X462298Y239593D03*
X462944Y351544D03*
X458009Y356534D03*
X483952Y185504D03*
X489858Y185505D03*
X476078Y186488D03*
X480700Y224000D03*
X485592Y220915D03*
X486930Y211072D03*
X485960Y217837D03*
X483005Y240589D03*
X474134Y227805D03*
X483006Y252400D03*
X483005Y246495D03*
X478102Y265239D03*
Y275021D03*
X473163Y270116D03*
X484543Y309331D03*
X478637Y309330D03*
X488480Y327048D03*
Y334872D03*
X474724Y351630D03*
X495763Y185505D03*
X490400Y218300D03*
X490600Y211000D03*
X501800Y211100D03*
X508600Y211000D03*
X501995Y218515D03*
X505906Y221441D03*
X505221Y318148D03*
X502267Y356534D03*
X500291Y344715D03*
X503600Y372000D03*
X507600Y372200D03*
X508900Y376600D03*
X498266Y361234D03*
X509600Y218100D03*
X514791Y210640D03*
Y217530D03*
X519900Y362600D03*
G54D14*
X43307Y207677D03*
X51181D03*
X43307Y217520D03*
X51181D03*
G54D15*
X48300Y257500D03*
Y267500D03*
G54D16*
Y247500D03*
G54D17*
X96522Y161012D03*
X470293Y213573D03*
G54D18*
X504449Y282480D03*
Y300197D03*
X519803Y278937D03*
X529803Y282480D03*
Y300197D03*
X519803Y303740D03*
X542795Y281339D03*
Y301339D03*
G54D19*
G01X69600Y213300D02*
Y210800D01*
X53500Y194700D01*
Y129800D01*
X41800Y118100D01*
Y98167D01*
X43902Y96066D01*
G01X40300Y92124D02*
Y118600D01*
X51800Y130100D01*
Y195800D01*
X64900Y208900D01*
Y211300D01*
G01X68000Y205100D02*
Y196694D01*
X62600Y191294D01*
Y110637D01*
X67916Y105320D01*
G01X72200Y193100D02*
Y190800D01*
X71200Y189800D01*
Y144300D01*
X68300Y141400D01*
Y129200D01*
G01X71200Y198900D02*
Y198056D01*
X69300Y196156D01*
X65200Y192056D01*
Y151050D01*
X67825Y148425D01*
G01X78450Y197350D02*
X77200Y196100D01*
Y165496D01*
X78400Y164296D01*
X80353D01*
X81700Y162949D01*
Y161043D01*
X77200Y156543D01*
Y146900D01*
X87900Y136200D01*
Y128700D01*
G01X92500Y128800D02*
Y141100D01*
X82100Y151500D01*
Y159605D01*
X83000Y160505D01*
Y163488D01*
X80891Y165596D01*
X80400D01*
X79200Y166796D01*
Y190353D01*
X80180Y191333D01*
Y191580D01*
X81800Y193199D01*
Y201900D01*
X80200Y203500D01*
G01X127900Y269000D02*
X102300D01*
X77700Y293600D01*
G01X136200Y273700D02*
X141249Y278749D01*
Y310523D01*
X139764Y312008D01*
G01X215300Y319700D02*
X215068Y319468D01*
X205632D01*
X199600Y325500D01*
X135200D01*
X131400Y329300D01*
G01X158900Y278100D02*
Y248796D01*
X159739Y247958D01*
G01X200354Y277146D02*
Y309946D01*
X199300Y311000D01*
Y311042D01*
G01X192000Y299400D02*
X198400Y293000D01*
Y282600D01*
X197946Y282146D01*
G01X224101Y302401D02*
X227300Y299202D01*
Y295100D01*
G01X241326Y260126D02*
X241100D01*
Y259900D01*
G01X247800Y278100D02*
X244300Y274600D01*
Y272100D01*
X240400Y268200D01*
Y265300D01*
G01X238400Y284400D02*
X240500Y282300D01*
Y271300D01*
X236700Y267500D01*
Y265100D01*
G01X244600Y367100D02*
X236400Y358900D01*
Y330500D01*
X230700Y324800D01*
Y315100D01*
G01X257600Y318200D02*
Y289200D01*
X267200Y279600D01*
Y216400D01*
X274113Y209487D01*
X301889D01*
G01X260800Y314000D02*
X259100Y312300D01*
Y290400D01*
X268800Y280700D01*
Y236900D01*
X274722Y230978D01*
X303081D01*
G01X351700Y284100D02*
X361700Y274100D01*
G01X387800Y373300D02*
X386100Y371600D01*
Y368800D01*
X375700Y358400D01*
Y279200D01*
X373600Y277100D01*
G01X364050Y277550D02*
X364200Y277700D01*
Y371300D01*
X361300Y374200D01*
G01X380000Y368000D02*
X376100D01*
X370900Y362800D01*
Y287800D01*
G01X503600Y372000D02*
Y365200D01*
X507800Y361000D01*
Y336500D01*
X494600Y323300D01*
Y210200D01*
X484100Y199700D01*
Y185652D01*
X483952Y185504D01*
G01X507600Y372200D02*
X509100Y370700D01*
Y335961D01*
X496400Y323261D01*
Y208800D01*
X489858Y202258D01*
Y185505D01*
G01X508900Y376600D02*
X514000Y371500D01*
Y338000D01*
X497900Y321900D01*
Y204600D01*
X494400Y201100D01*
Y186868D01*
X495763Y185505D01*
M02*
