G04 ================== begin FILE IDENTIFICATION RECORD ==================*
G04 Layout Name:  D:/baiduyun/rf_gen/allegro/vvlogic_x1_v3.1.brd*
G04 Film Name:    L2_GND*
G04 File Format:  Gerber RS274X*
G04 File Origin:  Cadence Allegro 16.6-S047*
G04 Origin Date:  Mon Dec 21 16:14:25 2015*
G04 *
G04 Layer:  ETCH/L2_GND*
G04 Layer:  PIN/L2_GND*
G04 Layer:  VIA CLASS/L2_GND*
G04 *
G04 Offset:    (0.000 0.000)*
G04 Mirror:    No*
G04 Mode:      Positive*
G04 Rotation:  0*
G04 FullContactRelief:  No*
G04 UndefLineWidth:     0.000*
G04 ================== end FILE IDENTIFICATION RECORD ====================*
%FSLAX25Y25*MOIN*%
%IR0*IPPOS*OFA0.00000B0.00000*MIA0B0*SFA1.00000B1.00000*%
%ADD12C,.15*%
%ADD10C,.15748*%
%ADD14C,.06*%
%ADD16C,.062*%
%ADD13C,.026*%
%ADD11C,.08*%
%ADD15C,.062205*%
%ADD18C,.07874*%
%ADD17R,.098425X.098425*%
%ADD23C,.072004*%
%ADD22C,.07421*%
%ADD20C,.092004*%
%ADD19C,.038004*%
%ADD21C,.090744*%
G75*
%LPD*%
G75*
G36*
G01X546516Y303935D02*
G03Y298742I-3721J-2597D01*
G02X547244Y298513I328J-229D01*
G01Y284164D01*
G02X546516Y283935I-400J0D01*
G03Y278742I-3721J-2597D01*
G02X547244Y278513I328J-229D01*
G01Y43307D01*
X3937D01*
Y385827D01*
X547244D01*
Y304164D01*
G02X546516Y303935I-400J0D01*
G37*
%LPC*%
G75*
G36*
G01X77026Y198608D02*
G03X76878Y199242I-300J265D01*
G02X77860Y202882I722J1758D01*
G03X78309Y203318I50J397D01*
G02X79944Y201617I1891J182D01*
G03X79491Y201187I-54J-396D01*
G02X79024Y199742I-1891J-187D01*
G03X79172Y199108I300J-265D01*
G02X77026Y198608I-722J-1758D01*
G37*
G36*
G01X132825Y331344D02*
G03X132703Y330683I153J-370D01*
G02X130675Y331056I-1303J-1383D01*
G03X130797Y331717I-153J370D01*
G02X132825Y331344I1303J1383D01*
G37*
G36*
G01X363331Y275075D02*
G02X362011Y275975I-1631J-975D01*
G03X362419Y276575I65J395D01*
G02X363739Y275675I1631J975D01*
G03X363331Y275075I-65J-395D01*
G37*
G36*
G01X505299Y371149D02*
G02X505206Y373016I-1699J851D01*
G03X505901Y373051I338J214D01*
G02X505994Y371184I1699J-851D01*
G03X505299Y371149I-338J-214D01*
G37*
G36*
G01X177959Y156392D02*
G03X178481Y156096I391J82D01*
G02X177241Y153908I619J-1797D01*
G03X176719Y154204I-391J-82D01*
G02X177959Y156392I-619J1797D01*
G37*
G36*
G01X238932Y264093D02*
G03X238289Y264058I-309J-254D01*
G02X238168Y266307I-1589J1042D01*
G03X238811Y266342I309J254D01*
G02X238932Y264093I1589J-1042D01*
G37*
G36*
G01X31520Y340288D02*
G03X30980I-270J-296D01*
G02Y343096I-1281J1404D01*
G03X31520I270J296D01*
G02Y340288I1281J-1404D01*
G37*
G54D23*
X51181Y217520D03*
X43307D03*
X51181Y207677D03*
G54D22*
X48300Y267500D03*
Y257500D03*
G54D20*
X533464Y214567D03*
X17717Y291339D03*
Y137796D03*
G54D19*
X406024Y159172D03*
X72200Y193100D03*
X133100Y338200D03*
X508900Y376600D03*
X495763Y185505D03*
X474724Y351630D03*
X476078Y186488D03*
X489858Y185505D03*
X483952Y185504D03*
X459369Y193354D03*
X456393Y185503D03*
X419012Y199654D03*
X406254Y350546D03*
X411138Y214418D03*
X413106Y198669D03*
X407992Y142956D03*
X413898Y143940D03*
X380000Y368000D03*
X387800Y373300D03*
X361300Y374200D03*
X370900Y287800D03*
X373600Y277100D03*
X351700Y382600D03*
X333224Y295276D03*
X333200Y274300D03*
X312682Y249182D03*
X303081Y230978D03*
X301889Y209487D03*
X256600Y345669D03*
X260800Y314000D03*
X257600Y318200D03*
X256900Y265195D03*
X247800Y278100D03*
X257600Y254500D03*
X228400Y381700D03*
X244600Y367100D03*
X226300Y331800D03*
X230700Y315100D03*
X242323Y301800D03*
X227300Y295100D03*
X238400Y284400D03*
X241326Y260126D03*
X242800Y247100D03*
X232600Y253700D03*
X233200Y258200D03*
X222400Y381500D03*
X212795Y361800D03*
X223200Y339000D03*
X224101Y302401D03*
X216732Y311482D03*
X215300Y319700D03*
X215562Y292146D03*
X217900Y264100D03*
X196500Y322047D03*
X199300Y311042D03*
X192000Y299400D03*
X200354Y277146D03*
X197946Y282146D03*
X171617Y219480D03*
X182800Y141376D03*
X158900Y278100D03*
X159739Y247958D03*
X154817Y243036D03*
X149612Y356315D03*
X147643Y332039D03*
X139764Y312008D03*
X137795Y300215D03*
X136200Y273700D03*
X136688Y217588D03*
X142588Y194488D03*
Y174212D03*
X139370Y64559D03*
X123800Y358300D03*
X116094Y369060D03*
X127466Y312513D03*
X127953Y300215D03*
X127900Y269000D03*
X128800Y198554D03*
X129793Y167593D03*
Y148000D03*
X112992Y129008D03*
X103346Y300213D03*
X104000Y198400D03*
X101383Y139770D03*
X105200Y146000D03*
X107352Y123948D03*
X105906Y111808D03*
X88500Y356400D03*
X89078Y351886D03*
X88585Y341535D03*
X89570Y325551D03*
X77700Y293600D03*
X78600Y285500D03*
X79400Y161996D03*
X92500Y128800D03*
X87900Y128700D03*
X91148Y95994D03*
X69135Y241904D03*
X64900Y211300D03*
X69600Y213300D03*
X68000Y205100D03*
X59400Y161326D03*
X73746Y132746D03*
X67825Y148425D03*
X68300Y129200D03*
X62603Y102956D03*
X67916Y105320D03*
X62603Y91144D03*
X43400Y370800D03*
X39600Y375200D03*
X53740Y329140D03*
X47835Y329100D03*
X43902Y96066D03*
X40300Y92124D03*
X214300Y325900D03*
X209900Y322200D03*
X71200Y198900D03*
X129990Y136800D03*
G54D21*
X519803Y303740D03*
X529803Y300197D03*
Y282480D03*
X519803Y278937D03*
X504449Y300197D03*
Y282480D03*
%LPD*%
G75*
G54D10*
X15748Y55118D03*
Y374016D03*
X535433Y55118D03*
Y374016D03*
G54D11*
X7874Y127953D03*
Y147638D03*
X17717Y137796D03*
X7874Y281496D03*
Y301181D03*
X17717Y291339D03*
X27559Y127953D03*
Y147638D03*
Y281496D03*
Y301181D03*
X523622Y204724D03*
Y224409D03*
X543307Y204724D03*
Y224409D03*
X533464Y214567D03*
G54D12*
X32638Y189134D03*
Y236536D03*
G54D13*
X20276Y335047D03*
X23290Y338061D03*
X33029Y337992D03*
X32800Y341692D03*
X29700D03*
X46854Y88191D03*
X40300Y92124D03*
X43902Y96066D03*
X48228Y298244D03*
X40354Y298244D03*
X53740Y319300D03*
X47835Y319298D03*
Y329100D03*
X53740Y329140D03*
X40939Y337992D03*
X39600Y375200D03*
X43400Y370800D03*
X58666Y88191D03*
X62603Y91144D03*
X67916Y105320D03*
X62603Y102956D03*
X68300Y129200D03*
X67825Y148425D03*
X73746Y132746D03*
X59400Y161326D03*
X68147Y177953D03*
X68542Y183858D03*
X72200Y193100D03*
X71200Y198900D03*
X68000Y205100D03*
X62992Y195879D03*
X69600Y213300D03*
X64900Y211300D03*
X69200Y232400D03*
X69135Y241904D03*
Y250763D03*
X86226Y68505D03*
X84258Y75395D03*
X91148Y95994D03*
X84258Y96066D03*
X84646Y100394D03*
X87900Y128700D03*
X92500Y128800D03*
X80900Y129700D03*
X90158Y113783D03*
X79900Y149400D03*
X79400Y161996D03*
X77600Y201000D03*
X78450Y197350D03*
X80200Y203500D03*
X87402Y190800D03*
X82480Y190627D03*
X92300D03*
X78600Y285500D03*
X92520Y300213D03*
X77700Y293600D03*
X77695Y324803D03*
X89570Y325551D03*
X88585Y341535D03*
X89078Y351886D03*
X77695Y341535D03*
Y350394D03*
Y356299D03*
X88500Y356400D03*
X111811Y89168D03*
X100000Y79339D03*
X97120Y82352D03*
X94101Y75395D03*
X105906Y111808D03*
X102061Y129739D03*
X107087Y129846D03*
X98032Y113783D03*
X107352Y123948D03*
X105200Y146000D03*
X111700Y141100D03*
X108600Y147600D03*
X101383Y139770D03*
X110300Y152500D03*
X108500Y175000D03*
X111000Y169400D03*
X108900Y180758D03*
X94400Y180000D03*
X104000Y198400D03*
X104331Y204669D03*
X107087Y191887D03*
X110039Y190561D03*
X103700Y190682D03*
X97244Y190856D03*
X109217Y208717D03*
X98917D03*
X103346Y300213D03*
X108268Y297465D03*
X94491Y316943D03*
X112094Y321750D03*
X104094Y321625D03*
X100100Y351378D03*
X106094Y359951D03*
Y368127D03*
X111100Y377884D03*
X123622Y63576D03*
X114700Y86152D03*
X126200Y110400D03*
X112992Y129008D03*
X125900Y133000D03*
X122178Y145478D03*
X129793Y148000D03*
X129990Y136800D03*
X118600Y164100D03*
X121794Y150394D03*
X116266Y155566D03*
X129793Y167593D03*
X118800Y179800D03*
X112400Y203400D03*
X120809Y190627D03*
X115945Y190645D03*
X127300Y191900D03*
X118898Y201198D03*
X128800Y198554D03*
X115158Y212258D03*
X127900Y269000D03*
X127953Y300215D03*
X130574Y297465D03*
X123032Y297465D03*
X113189D03*
X127466Y312513D03*
X122094Y321822D03*
X128094Y321728D03*
X116094Y369060D03*
X130094Y359437D03*
X123800Y358300D03*
X129810Y379600D03*
X148700Y52800D03*
X139370Y64559D03*
X148300Y61100D03*
X131496Y63576D03*
X148600Y77200D03*
X148700Y89500D03*
X148300Y102600D03*
X136085Y105315D03*
X148400Y117700D03*
Y128300D03*
X138100Y113300D03*
X148700Y135900D03*
X149500Y145800D03*
X137300Y148100D03*
X137036Y139764D03*
X136842Y133858D03*
X136800Y143900D03*
X143600Y158700D03*
X141495Y164105D03*
X141646Y151446D03*
X134100Y187600D03*
X146388Y174088D03*
X133593Y170193D03*
X142588Y174212D03*
X131693Y191693D03*
X146388Y194588D03*
X142588Y194488D03*
X136688Y217588D03*
X136200Y273700D03*
X137795Y300215D03*
X139764Y312008D03*
X147643Y332039D03*
X133858Y322835D03*
X131400Y329300D03*
X133100Y338200D03*
X132100Y333100D03*
X149612Y356315D03*
X147643Y340566D03*
X137801Y341551D03*
X131894Y368127D03*
X157800Y146300D03*
X162800Y135600D03*
X166300Y147500D03*
X164100Y152200D03*
X155300Y159900D03*
X154300Y151200D03*
X167700Y157200D03*
X162300Y157000D03*
X151378Y174022D03*
X163000Y169300D03*
X151378Y193122D03*
X165643Y241062D03*
X155802Y238115D03*
X154817Y243036D03*
X159739Y247958D03*
X163800Y279900D03*
X158900Y278100D03*
X159328Y332677D03*
Y356299D03*
X171500Y52500D03*
X187300Y148800D03*
X175900Y147700D03*
X171747Y147553D03*
X182800Y141376D03*
X186700Y165000D03*
X172200Y156900D03*
X176100Y156000D03*
X179100Y154300D03*
X178436Y223346D03*
X171617Y219480D03*
X181388Y241062D03*
X178441Y229251D03*
X174499Y254516D03*
X185946Y277146D03*
X173954D03*
X184042Y333400D03*
X184253Y322047D03*
X184669Y345669D03*
X194500Y52700D03*
X189592Y145008D03*
X191300Y159300D03*
X199000Y159600D03*
X198600Y166300D03*
X191100Y170300D03*
X197946Y282146D03*
X200354Y277146D03*
X192000Y299400D03*
X199300Y311042D03*
X196500Y322047D03*
X217700Y52700D03*
X206800Y146200D03*
X211200Y159700D03*
X220200D03*
X220100Y166400D03*
X211400Y166300D03*
X217900Y264100D03*
X215562Y292146D03*
X220680Y285320D03*
X216732Y311482D03*
X209400Y305800D03*
X215300Y319700D03*
X224101Y302401D03*
X214300Y325900D03*
X209900Y322200D03*
X223200Y339000D03*
X212795Y361800D03*
X222400Y381500D03*
X233200Y146400D03*
X227300Y160000D03*
X242600Y159900D03*
X242614Y166794D03*
X226865Y166793D03*
X233200Y258200D03*
X232600Y253700D03*
X242800Y247100D03*
X241326Y260126D03*
X240400Y265300D03*
X236700Y265100D03*
X234449Y290351D03*
X242323Y290077D03*
X238400Y284400D03*
X227300Y295100D03*
X242323Y301800D03*
X230700Y315100D03*
X226300Y331800D03*
X244600Y367100D03*
X228400Y381700D03*
X247100Y53000D03*
X258400Y159900D03*
X258361Y166795D03*
X257600Y254500D03*
X247800Y278100D03*
X256900Y265195D03*
X257600Y318200D03*
X260800Y314000D03*
X256600Y345669D03*
X257800Y342100D03*
X245600Y345300D03*
X274600Y52500D03*
X273600Y146400D03*
X273900Y159800D03*
X274109Y166796D03*
X280300Y335300D03*
X267769Y345669D03*
X288200Y159900D03*
X301100Y166300D03*
X288000Y166400D03*
X302000Y52500D03*
X317000Y146300D03*
X302400Y159800D03*
X312200Y158500D03*
X318400Y166900D03*
X316433Y156166D03*
X312696Y209487D03*
X301889D03*
X313680Y228187D03*
X303081Y230978D03*
X312682Y249182D03*
X329500Y52700D03*
X320500Y158800D03*
X328200D03*
X336000D03*
X331500Y166700D03*
X332202Y156146D03*
X330409Y215120D03*
X324518Y217371D03*
X334767Y260827D03*
X333200Y274300D03*
X334952Y265748D03*
X334767Y270669D03*
X333224Y295276D03*
X354500Y52700D03*
X343300Y158700D03*
X351900D03*
X347900Y166600D03*
X347929Y156168D03*
X341432Y189630D03*
X357180Y189630D03*
X346157Y215120D03*
X345200Y272600D03*
X347000Y296600D03*
X345516Y357812D03*
X339373D03*
X351700Y382600D03*
X360600Y146800D03*
X359300Y158400D03*
X373600Y158700D03*
X372900Y166700D03*
X362000Y167000D03*
X363677Y156168D03*
X372928Y189632D03*
X361905Y215120D03*
X373600Y277100D03*
X361700Y274100D03*
X364050Y277550D03*
X374400Y273000D03*
X370900Y287800D03*
X373200Y290900D03*
X373400Y296200D03*
X360535Y292065D03*
X361300Y374200D03*
X377500Y52500D03*
X392600Y163200D03*
X378400Y163100D03*
X386400Y169600D03*
X388676Y189632D03*
X377653Y215120D03*
X387500Y286000D03*
X387935Y292065D03*
X387800Y373300D03*
X380000Y368000D03*
X402000Y52600D03*
X412914Y130160D03*
X397000Y146600D03*
X413898Y143940D03*
X407992Y142956D03*
X402700Y163300D03*
X396181Y158705D03*
X411437Y152566D03*
X406024Y159172D03*
X399200Y169600D03*
X410600Y169700D03*
X413106Y198669D03*
X411138Y214418D03*
X400881Y260865D03*
X400880Y266770D03*
Y271691D03*
X400880Y284487D03*
X406254Y350546D03*
X424400Y52700D03*
X426694Y129176D03*
X420074Y142686D03*
X429647Y142956D03*
X432100Y151800D03*
X432500Y162200D03*
X417218Y153858D03*
X423741Y166579D03*
X425194Y154299D03*
X433100Y177100D03*
X422700Y173000D03*
X423600Y180000D03*
X431808Y183905D03*
X418028Y185874D03*
X425192Y199379D03*
X419012Y199654D03*
X417513Y207997D03*
X418307Y225394D03*
X427753Y208631D03*
X430313Y222766D03*
X431858Y240157D03*
X431564Y235236D03*
X431837Y253937D03*
X431784Y267716D03*
X416339Y282939D03*
X439400Y53200D03*
X439900Y69400D03*
X439700Y88200D03*
Y108200D03*
X440200Y127100D03*
X439400Y141900D03*
X433700Y170400D03*
X450487Y185503D03*
X444582Y185502D03*
X442700Y204300D03*
X434761Y200638D03*
X436900Y219400D03*
X436200Y210200D03*
X452479Y217962D03*
Y211072D03*
X448542D03*
X443631Y220904D03*
X443620Y226820D03*
X456393Y185503D03*
X468204Y185480D03*
X462298D03*
X459369Y193354D03*
X459700Y202100D03*
X466900Y199100D03*
X460100Y224600D03*
X468204Y239592D03*
X462298Y239593D03*
X462944Y351544D03*
X458009Y356534D03*
X483952Y185504D03*
X489858Y185505D03*
X476078Y186488D03*
X480700Y224000D03*
X485592Y220915D03*
X486930Y211072D03*
X485960Y217837D03*
X483005Y240589D03*
X474134Y227805D03*
X483006Y252400D03*
X483005Y246495D03*
X478102Y265239D03*
Y275021D03*
X473163Y270116D03*
X484543Y309331D03*
X478637Y309330D03*
X488480Y327048D03*
Y334872D03*
X474724Y351630D03*
X495763Y185505D03*
X490400Y218300D03*
X490600Y211000D03*
X501800Y211100D03*
X508600Y211000D03*
X501995Y218515D03*
X505906Y221441D03*
X505221Y318148D03*
X502267Y356534D03*
X500291Y344715D03*
X503600Y372000D03*
X507600Y372200D03*
X508900Y376600D03*
X498266Y361234D03*
X509600Y218100D03*
X514791Y210640D03*
Y217530D03*
X519900Y362600D03*
G54D14*
X43307Y207677D03*
X51181D03*
X43307Y217520D03*
X51181D03*
G54D15*
X48300Y257500D03*
Y267500D03*
G54D16*
Y247500D03*
G54D17*
X96522Y161012D03*
X470293Y213573D03*
G54D18*
X504449Y282480D03*
Y300197D03*
X519803Y278937D03*
X529803Y282480D03*
Y300197D03*
X519803Y303740D03*
X542795Y281339D03*
Y301339D03*
M02*
