G04 ================== begin FILE IDENTIFICATION RECORD ==================*
G04 Layout Name:  D:/baiduyun/rf_gen/allegro/vvlogic_x1_v3.1.brd*
G04 Film Name:    L3_POWER*
G04 File Format:  Gerber RS274X*
G04 File Origin:  Cadence Allegro 16.6-S047*
G04 Origin Date:  Mon Dec 21 16:14:25 2015*
G04 *
G04 Layer:  ETCH/L3_POWER*
G04 Layer:  PIN/L3_POWER*
G04 Layer:  VIA CLASS/L3_POWER*
G04 *
G04 Offset:    (0.000 0.000)*
G04 Mirror:    No*
G04 Mode:      Positive*
G04 Rotation:  0*
G04 FullContactRelief:  No*
G04 UndefLineWidth:     0.000*
G04 ================== end FILE IDENTIFICATION RECORD ====================*
%FSLAX25Y25*MOIN*%
%IR0*IPPOS*OFA0.00000B0.00000*MIA0B0*SFA1.00000B1.00000*%
%ADD12C,.15*%
%ADD10C,.15748*%
%ADD14C,.06*%
%ADD16C,.062*%
%ADD13C,.026*%
%ADD11C,.08*%
%ADD15C,.062205*%
%ADD18C,.07874*%
%ADD17R,.098425X.098425*%
%ADD19C,.012*%
%ADD20C,.03*%
%ADD21C,.015*%
%ADD26C,.072004*%
%ADD25C,.07421*%
%ADD23C,.092004*%
%ADD22C,.038004*%
%ADD24C,.090744*%
G75*
%LPD*%
G75*
G36*
G01X230363Y380100D02*
G02X230021Y380709I0J400D01*
G03X226779I-1621J991D01*
G02X226438Y380100I-341J-209D01*
G01X224472D01*
G02X224111Y380674I0J400D01*
G03X220689I-1711J826D01*
G02X220328Y380100I-360J-174D01*
G01X188411D01*
X183368Y385144D01*
G02X183650Y385827I283J283D01*
G01X547244D01*
Y304164D01*
G02X546516Y303935I-400J0D01*
G03Y298742I-3721J-2597D01*
G02X547244Y298513I328J-229D01*
G01Y284164D01*
G02X546516Y283935I-400J0D01*
G03Y278742I-3721J-2597D01*
G02X547244Y278513I328J-229D01*
G01Y43307D01*
X3937D01*
Y385827D01*
X119907D01*
G02X120190Y385144I0J-400D01*
G01X118630Y383584D01*
X59673D01*
X30600Y354511D01*
Y343892D01*
X29700D01*
G03X27814Y342826I0J-2201D01*
G01X27801Y342805D01*
X26700Y341704D01*
Y320189D01*
X32600Y314289D01*
Y296189D01*
X71900Y256889D01*
Y247781D01*
X60100Y235981D01*
Y216111D01*
X54252Y210263D01*
G02X53690Y210259I-283J283D01*
G03X54031Y205477I-2509J-2582D01*
G01X55689D01*
X64500Y214289D01*
Y234158D01*
X76300Y245958D01*
Y258711D01*
X37000Y298011D01*
Y316111D01*
X31100Y322011D01*
Y339492D01*
X32800D01*
G03X35000Y341692I0J2200D01*
G01Y352689D01*
X61496Y379184D01*
X120453D01*
X122569Y381300D01*
X180989D01*
X186589Y375700D01*
X359280D01*
G02X359631Y375109I0J-400D01*
G03X362969I1669J-909D01*
G02X363320Y375700I351J191D01*
G01X404954D01*
Y351931D01*
G03X407554I1300J-1386D01*
G01Y375700D01*
X462789D01*
X472300Y366189D01*
Y350943D01*
X473169Y350074D01*
G03X476700Y352598I1556J1556D01*
G01Y368011D01*
X464611Y380100D01*
X230363D01*
G37*
%LPC*%
G75*
G36*
G01X132825Y331344D02*
G03X132703Y330683I153J-370D01*
G02X130675Y331056I-1303J-1383D01*
G03X130797Y331717I-153J370D01*
G02X132825Y331344I1303J1383D01*
G37*
G36*
G01X363331Y275075D02*
G02X362011Y275975I-1631J-975D01*
G03X362419Y276575I65J395D01*
G02X363739Y275675I1631J975D01*
G03X363331Y275075I-65J-395D01*
G37*
G36*
G01X505299Y371149D02*
G02X505206Y373016I-1699J851D01*
G03X505901Y373051I338J214D01*
G02X505994Y371184I1699J-851D01*
G03X505299Y371149I-338J-214D01*
G37*
G36*
G01X99997Y138470D02*
X95591D01*
X78100Y155961D01*
Y160610D01*
G02X80700I1300J1386D01*
G01Y157039D01*
X96668Y141071D01*
X99997D01*
G02Y138470I1386J-1300D01*
G37*
G36*
G01X143888Y193103D02*
Y175597D01*
G02X142608Y172312I-1300J-1386D01*
G01X142526Y172311D01*
X136508Y166293D01*
X131179D01*
G02X131093Y166207I-1386J1300D01*
G01Y149386D01*
G02X128493I-1300J-1386D01*
G01Y166207D01*
G02X131179Y168893I1300J1386D01*
G01X135431D01*
X140687Y174150D01*
X140688Y174231D01*
G02X141288Y175597I1900J-20D01*
G01Y193103D01*
G02X141202Y193188I1300J1386D01*
G01X132327D01*
X128862Y196653D01*
X128781Y196653D01*
G02X130700Y198573I19J1900D01*
G01X130701Y198491D01*
X133404Y195788D01*
X141202D01*
G02X143888Y193103I1386J-1300D01*
G37*
G36*
G01X238932Y264093D02*
G03X238289Y264058I-309J-254D01*
G02X238168Y266307I-1589J1042D01*
G03X238811Y266342I309J254D01*
G02X238932Y264093I1589J-1042D01*
G37*
G36*
G01X104020Y196500D02*
X103938Y196499D01*
X101600Y194161D01*
Y186539D01*
X106500Y181639D01*
Y147386D01*
G02X103900I-1300J-1386D01*
G01Y180561D01*
X99000Y185461D01*
Y195239D01*
X102099Y198338D01*
X102100Y198420D01*
G02X104020Y196500I1900J-19D01*
G37*
G36*
G01X101939Y131300D02*
X74979D01*
G02X75255Y133900I-1233J1446D01*
G01X100861D01*
X105061Y138100D01*
X128604D01*
G02Y135500I1386J-1300D01*
G01X106139D01*
X101939Y131300D01*
G37*
G36*
G01X524383Y301497D02*
X525456D01*
G02X527603Y304165I4347J-1300D01*
G01Y317089D01*
X524392Y320300D01*
X457693D01*
Y195268D01*
G03X458315Y194935I400J0D01*
G02X460755Y194655I1054J-1581D01*
G01X469750D01*
X476016Y188389D01*
X476097Y188388D01*
G02X474178Y186469I-19J-1900D01*
G01X474177Y186550D01*
X468673Y192054D01*
X460755D01*
G02X458315Y191773I-1386J1300D01*
G03X457693Y191440I-222J-333D01*
G01Y186889D01*
G02X455093I-1300J-1386D01*
G01Y320300D01*
X397789D01*
X359565Y358523D01*
X334525Y333483D01*
Y296661D01*
G02X334500Y293867I-1300J-1386D01*
G01Y275686D01*
G02X333220Y272400I-1300J-1386D01*
G01X333138Y272399D01*
X332700Y271961D01*
X332700Y270580D01*
Y253761D01*
X326820Y247882D01*
X314068D01*
G02Y250482I-1386J1300D01*
G01X325743D01*
X330100Y254839D01*
Y270580D01*
X330099Y273038D01*
X331299Y274238D01*
X331300Y274320D01*
G02X331900Y275686I1900J-20D01*
G01Y293913D01*
G02X331924Y296661I1325J1362D01*
G01Y334560D01*
X357726Y360362D01*
X347889Y370200D01*
X258078D01*
Y346863D01*
G02X256540Y343770I-1479J-1194D01*
G01X256200Y343431D01*
Y320272D01*
G03X256774Y319911I400J0D01*
G02Y316489I826J-1711D01*
G03X256200Y316128I-174J-360D01*
G01Y305161D01*
X251539Y300500D01*
X243709D01*
G02Y303100I-1386J1300D01*
G01X250461D01*
X253600Y306239D01*
Y344508D01*
X254699Y345607D01*
X254700Y345689D01*
G02X255478Y347203I1900J-19D01*
G01Y370100D01*
X214096D01*
Y363186D01*
G02X211495I-1300J-1386D01*
G01Y370100D01*
X197800D01*
Y323433D01*
G02X198400Y322067I-1300J-1386D01*
G01X198401Y321985D01*
X207604Y312782D01*
X215347D01*
G02X217031Y309606I1386J-1300D01*
G01X216862Y309579D01*
Y293531D01*
G02X214262I-1300J-1386D01*
G01Y310182D01*
X206526D01*
X196562Y320146D01*
X196480Y320147D01*
G02X195200Y323433I20J1900D01*
G01Y370100D01*
X158436D01*
X158389Y370147D01*
G03X158048Y370005I-141J-141D01*
G01Y356860D01*
X158028Y356840D01*
Y355761D01*
X158048Y355741D01*
Y338609D01*
X150568Y331129D01*
G02X150549Y331110I-929J910D01*
G01X150178Y330739D01*
X149655D01*
G02X149639Y330739I-16J1300D01*
G01X149029D01*
G02X148929Y333438I-1386J1300D01*
G01X149037Y333339D01*
X149101D01*
X155447Y339686D01*
Y354663D01*
X155427Y354683D01*
Y357913D01*
X155447Y357933D01*
Y372700D01*
X150659D01*
Y357901D01*
G02X148058Y357410I-1047J-1586D01*
G01Y372700D01*
X132311D01*
X126471Y366860D01*
X116094D01*
G02X114539Y367504I0J2200D01*
G01X111909Y370134D01*
X85100D01*
Y354539D01*
X86452Y353186D01*
X87692D01*
G02X88637Y353734I1386J-1300D01*
G01X88692Y353748D01*
X88874Y353929D01*
X88603Y354199D01*
X88500D01*
G02X87131Y358122I0J2200D01*
G02X88531Y358600I1370J-1722D01*
G01X89515D01*
G02X89530Y358600I-6J-2200D01*
G01X90426D01*
X91054Y357971D01*
G02X91085Y357941I-1540J-1571D01*
G01X91326Y357700D01*
X121261D01*
X121899Y358338D01*
X121903Y358413D01*
G02X123730Y356401I1897J-113D01*
G01X123643Y356404D01*
X122339Y355100D01*
X94883D01*
G03X94609Y354417I9J-400D01*
G01X96400Y352626D01*
Y338689D01*
X91770Y334058D01*
Y326463D01*
X92000Y326232D01*
Y317211D01*
X94498Y314713D01*
X127466D01*
G02Y310313I0J-2200D01*
G01X92676D01*
X87600Y315389D01*
Y324571D01*
G02X87370Y325551I1970J980D01*
G01Y335881D01*
X92000Y340511D01*
Y350803D01*
X91494Y351309D01*
G03X90840Y351175I-283J-283D01*
G02X90528Y350658I-1762J711D01*
G01Y341428D01*
X90480Y341380D01*
X90472Y341311D01*
G02X87628Y343177I-1887J224D01*
G01Y350586D01*
X85375D01*
X82500Y353461D01*
Y370134D01*
X79245D01*
X50035Y340923D01*
Y331340D01*
X60571D01*
X67200Y324711D01*
Y295589D01*
X62173Y290562D01*
X65935Y286800D01*
X77214D01*
G02X79986I1386J-1300D01*
G01X80861D01*
X88961Y294900D01*
X96194D01*
X101446Y300151D01*
X101446Y300233D01*
G02X104731Y301515I1900J-20D01*
G01X126567D01*
G02X129180Y301665I1386J-1300D01*
G01X136567D01*
G02Y298765I1228J-1450D01*
G01X129181D01*
G02X126567Y298914I-1228J1450D01*
G01X104733D01*
G02X103366Y298313I-1387J1299D01*
G01X103284Y298312D01*
X97272Y292300D01*
X90039D01*
X81939Y284200D01*
X79986D01*
G02X77214I-1386J1300D01*
G01X64858D01*
X60857Y288201D01*
G03X60174Y287918I-283J-283D01*
G01Y286937D01*
X94000Y253111D01*
Y204489D01*
X80136Y190624D01*
Y178950D01*
X60200Y159014D01*
Y133011D01*
X70811Y122400D01*
X98737D01*
X99031Y122106D01*
X105471Y128546D01*
X110691D01*
X111091Y128946D01*
X111092Y129027D01*
G02X113012Y127108I1900J-19D01*
G01X112930Y127107D01*
X112654Y126831D01*
G03X112937Y126148I283J-283D01*
G01X164460D01*
X180600Y142288D01*
Y152280D01*
G03X180009Y152631I-400J0D01*
G02X177241Y153908I-909J1669D01*
G03X176719Y154204I-391J-82D01*
G02X177959Y156392I-619J1797D01*
G03X178481Y156096I391J82D01*
G02X180009Y155969I619J-1797D01*
G03X180600Y156320I191J351D01*
G01Y173189D01*
X163400Y190389D01*
Y213200D01*
X139238D01*
X136750Y215687D01*
X136669Y215688D01*
G02X138588Y217608I20J1900D01*
G01X138589Y217526D01*
X140315Y215800D01*
X163889D01*
X169769Y221680D01*
X207569D01*
X253284Y267396D01*
X278316D01*
X302011Y243700D01*
X401811D01*
X413300Y232211D01*
Y214842D01*
X413303Y214809D01*
X413306Y214792D01*
X413308Y214781D01*
G02X410896Y212231I-2170J-363D01*
G01X410800Y212242D01*
X407324Y208766D01*
Y160558D01*
G02X404724I-1300J-1386D01*
G01Y209843D01*
X408900Y214019D01*
Y230389D01*
X399989Y239300D01*
X300189D01*
X276493Y262995D01*
X255107D01*
X209392Y217280D01*
X171592D01*
X167800Y213489D01*
Y192211D01*
X185000Y175011D01*
Y141376D01*
G02X184356Y139821I-2200J0D01*
G01X166283Y121748D01*
X107352D01*
G02X105171Y123659I0J2200D01*
G03X104492Y123889I-397J-53D01*
G01X100870Y120267D01*
X108106Y113031D01*
Y111808D01*
G02X108093Y111566I-2200J1D01*
G01X108082Y111470D01*
X140670Y78882D01*
Y65945D01*
G02X138070I-1300J-1386D01*
G01Y77805D01*
X106243Y109632D01*
X106148Y109621D01*
G02X103842Y111046I-242J2187D01*
G01X103827Y111088D01*
X96914Y118000D01*
X68989D01*
X55800Y131189D01*
Y159926D01*
G02X56444Y161481I2200J0D01*
G01X75736Y180773D01*
Y192447D01*
X78135Y194846D01*
G03X77956Y195515I-283J283D01*
G02X77026Y198608I494J1835D01*
G03X76878Y199242I-300J265D01*
G02X77860Y202882I722J1758D01*
G03X78309Y203318I50J397D01*
G02X79944Y201617I1891J182D01*
G03X79491Y201187I-54J-396D01*
G02X79024Y199742I-1891J-187D01*
G03X79172Y199108I300J-265D01*
G02X80285Y197844I-722J-1758D01*
G03X80954Y197665I386J104D01*
G01X89600Y206311D01*
Y251288D01*
X55773Y285114D01*
Y290385D01*
X62800Y297411D01*
Y322889D01*
X58748Y326940D01*
X48272D01*
X48238Y326937D01*
X48228Y326935D01*
G02X45634Y329100I-394J2165D01*
G01Y342746D01*
X77422Y374534D01*
X113732D01*
X117006Y371260D01*
X124648D01*
X130488Y377100D01*
X156748D01*
G02X158303Y376456I0J-2200D01*
G01X160259Y374500D01*
X256122D01*
X256150Y374508D01*
G02X256778Y374600I629J-2108D01*
G01X348800D01*
G02X348814Y374600I-9J-2200D01*
G01X349711D01*
X350344Y373968D01*
G02X350368Y373944I-1544J-1568D01*
G01X399611Y324700D01*
X526214D01*
X532003Y318911D01*
Y304165D01*
G02X525456Y298897I-2200J-3968D01*
G01X522808D01*
X521958Y299747D01*
G02X524012Y302046I-2154J3993D01*
G03X524383Y301497I371J-149D01*
G37*
G54D26*
X51181Y217520D03*
X43307D03*
G54D25*
X48300Y267500D03*
Y257500D03*
G54D23*
X533464Y214567D03*
X17717Y291339D03*
Y137796D03*
G54D22*
X72200Y193100D03*
X133100Y338200D03*
X508900Y376600D03*
X495763Y185505D03*
X489858Y185505D03*
X483952Y185504D03*
X419012Y199654D03*
X413106Y198669D03*
X407992Y142956D03*
X413898Y143940D03*
X380000Y368000D03*
X387800Y373300D03*
X370900Y287800D03*
X373600Y277100D03*
X351700Y382600D03*
X303081Y230978D03*
X301889Y209487D03*
X260800Y314000D03*
X247800Y278100D03*
X257600Y254500D03*
X244600Y367100D03*
X226300Y331800D03*
X230700Y315100D03*
X227300Y295100D03*
X238400Y284400D03*
X241326Y260126D03*
X242800Y247100D03*
X232600Y253700D03*
X233200Y258200D03*
X223200Y339000D03*
X224101Y302401D03*
X215300Y319700D03*
X217900Y264100D03*
X199300Y311042D03*
X192000Y299400D03*
X200354Y277146D03*
X197946Y282146D03*
X158900Y278100D03*
X159739Y247958D03*
X154817Y243036D03*
X139764Y312008D03*
X136200Y273700D03*
X127900Y269000D03*
X77700Y293600D03*
X92500Y128800D03*
X87900Y128700D03*
X91148Y95994D03*
X64900Y211300D03*
X69600Y213300D03*
X68000Y205100D03*
X67825Y148425D03*
X68300Y129200D03*
X62603Y102956D03*
X67916Y105320D03*
X62603Y91144D03*
X43400Y370800D03*
X39600Y375200D03*
X43902Y96066D03*
X40300Y92124D03*
X214300Y325900D03*
X209900Y322200D03*
X71200Y198900D03*
G54D24*
X529803Y282480D03*
X519803Y278937D03*
X504449Y300197D03*
Y282480D03*
%LPD*%
G75*
G54D10*
X15748Y55118D03*
Y374016D03*
X535433Y55118D03*
Y374016D03*
G54D20*
G01X29800Y341692D02*
X28900Y340792D01*
Y321100D01*
X34800Y315200D01*
Y297100D01*
X74100Y257800D01*
Y246870D01*
X69135Y241904D01*
G01X32800Y341692D02*
Y353600D01*
X60584Y381384D01*
X119542D01*
X121658Y383500D01*
X181900D01*
X187500Y377900D01*
X406400D01*
G01X29700Y341692D02*
X29800D01*
G01D02*
X32800D01*
G01X69135Y241904D02*
X62300Y235070D01*
Y215200D01*
X54777Y207677D01*
X51181D01*
G01X84226Y372334D02*
X78334D01*
X47835Y341835D01*
Y329100D01*
G01X53740Y329140D02*
X47875D01*
X47835Y329100D01*
G01X59698Y291198D02*
X65000Y296500D01*
Y323800D01*
X59660Y329140D01*
X53740D01*
G01X58000Y152500D02*
Y132100D01*
X69900Y120200D01*
X97826D01*
X98395Y119631D01*
G01X58000Y159926D02*
X59400Y161326D01*
G01X58000Y159926D02*
Y152500D01*
G01X59400Y161326D02*
X77936Y179861D01*
Y191536D01*
X91800Y205400D01*
Y252199D01*
X57974Y286026D01*
Y289474D01*
X59698Y291198D01*
G01X89570Y325551D02*
X89800Y325321D01*
Y316300D01*
X93587Y312513D01*
X127466D01*
G01X88500Y356400D02*
X89515D01*
X94200Y351714D01*
Y339600D01*
X89570Y334970D01*
Y325551D01*
G01X88501Y356400D02*
X88500Y356400D01*
G01X116094Y369060D02*
X112820Y372334D01*
X84226D01*
G01X105906Y111808D02*
Y112120D01*
X98395Y119631D01*
G01X182800Y141376D02*
X165372Y123948D01*
X107352D01*
G01X116094Y369060D02*
X125560D01*
X131400Y374900D01*
X149359D01*
G01D02*
X156748D01*
G01X165700Y214500D02*
X165600Y214400D01*
Y191300D01*
X182800Y174100D01*
Y141376D01*
G01X171617Y219480D02*
X170680D01*
X165700Y214500D01*
G01X156748Y374900D02*
X159348Y372300D01*
X196539D01*
G01X256900Y265195D02*
X254195D01*
X208480Y219480D01*
X171617D01*
G01X196539Y372300D02*
X212795D01*
G01D02*
X256678D01*
X256778Y372400D01*
G01X411138Y214418D02*
X411100Y214456D01*
Y231300D01*
X400900Y241500D01*
X301100D01*
X277405Y265195D01*
X256900D01*
G01X360202Y360998D02*
X348800Y372400D01*
X256778D01*
G01X455600Y322500D02*
X398700D01*
X360202Y360998D01*
G01X406400Y377900D02*
X463700D01*
X474500Y367100D01*
Y351855D01*
X474724Y351630D01*
G01X529803Y300197D02*
Y318000D01*
X525303Y322500D01*
X455600D01*
G54D11*
X7874Y127953D03*
Y147638D03*
X17717Y137796D03*
X7874Y281496D03*
Y301181D03*
X17717Y291339D03*
X27559Y127953D03*
Y147638D03*
Y281496D03*
Y301181D03*
X523622Y204724D03*
Y224409D03*
X543307Y204724D03*
Y224409D03*
X533464Y214567D03*
G54D21*
G01X89078Y351886D02*
Y342028D01*
X88585Y341535D01*
G01X137795Y300215D02*
X127953D01*
G54D12*
X32638Y189134D03*
Y236536D03*
G54D13*
X20276Y335047D03*
X23290Y338061D03*
X33029Y337992D03*
X32800Y341692D03*
X29700D03*
X46854Y88191D03*
X40300Y92124D03*
X43902Y96066D03*
X48228Y298244D03*
X40354Y298244D03*
X53740Y319300D03*
X47835Y319298D03*
Y329100D03*
X53740Y329140D03*
X40939Y337992D03*
X39600Y375200D03*
X43400Y370800D03*
X58666Y88191D03*
X62603Y91144D03*
X67916Y105320D03*
X62603Y102956D03*
X68300Y129200D03*
X67825Y148425D03*
X73746Y132746D03*
X59400Y161326D03*
X68147Y177953D03*
X68542Y183858D03*
X72200Y193100D03*
X71200Y198900D03*
X68000Y205100D03*
X62992Y195879D03*
X69600Y213300D03*
X64900Y211300D03*
X69200Y232400D03*
X69135Y241904D03*
Y250763D03*
X86226Y68505D03*
X84258Y75395D03*
X91148Y95994D03*
X84258Y96066D03*
X84646Y100394D03*
X87900Y128700D03*
X92500Y128800D03*
X80900Y129700D03*
X90158Y113783D03*
X79900Y149400D03*
X79400Y161996D03*
X77600Y201000D03*
X78450Y197350D03*
X80200Y203500D03*
X87402Y190800D03*
X82480Y190627D03*
X92300D03*
X78600Y285500D03*
X92520Y300213D03*
X77700Y293600D03*
X77695Y324803D03*
X89570Y325551D03*
X88585Y341535D03*
X89078Y351886D03*
X77695Y341535D03*
Y350394D03*
Y356299D03*
X88500Y356400D03*
X111811Y89168D03*
X100000Y79339D03*
X97120Y82352D03*
X94101Y75395D03*
X105906Y111808D03*
X102061Y129739D03*
X107087Y129846D03*
X98032Y113783D03*
X107352Y123948D03*
X105200Y146000D03*
X111700Y141100D03*
X108600Y147600D03*
X101383Y139770D03*
X110300Y152500D03*
X108500Y175000D03*
X111000Y169400D03*
X108900Y180758D03*
X94400Y180000D03*
X104000Y198400D03*
X104331Y204669D03*
X107087Y191887D03*
X110039Y190561D03*
X103700Y190682D03*
X97244Y190856D03*
X109217Y208717D03*
X98917D03*
X103346Y300213D03*
X108268Y297465D03*
X94491Y316943D03*
X112094Y321750D03*
X104094Y321625D03*
X100100Y351378D03*
X106094Y359951D03*
Y368127D03*
X111100Y377884D03*
X123622Y63576D03*
X114700Y86152D03*
X126200Y110400D03*
X112992Y129008D03*
X125900Y133000D03*
X122178Y145478D03*
X129793Y148000D03*
X129990Y136800D03*
X118600Y164100D03*
X121794Y150394D03*
X116266Y155566D03*
X129793Y167593D03*
X118800Y179800D03*
X112400Y203400D03*
X120809Y190627D03*
X115945Y190645D03*
X127300Y191900D03*
X118898Y201198D03*
X128800Y198554D03*
X115158Y212258D03*
X127900Y269000D03*
X127953Y300215D03*
X130574Y297465D03*
X123032Y297465D03*
X113189D03*
X127466Y312513D03*
X122094Y321822D03*
X128094Y321728D03*
X116094Y369060D03*
X130094Y359437D03*
X123800Y358300D03*
X129810Y379600D03*
X148700Y52800D03*
X139370Y64559D03*
X148300Y61100D03*
X131496Y63576D03*
X148600Y77200D03*
X148700Y89500D03*
X148300Y102600D03*
X136085Y105315D03*
X148400Y117700D03*
Y128300D03*
X138100Y113300D03*
X148700Y135900D03*
X149500Y145800D03*
X137300Y148100D03*
X137036Y139764D03*
X136842Y133858D03*
X136800Y143900D03*
X143600Y158700D03*
X141495Y164105D03*
X141646Y151446D03*
X134100Y187600D03*
X146388Y174088D03*
X133593Y170193D03*
X142588Y174212D03*
X131693Y191693D03*
X146388Y194588D03*
X142588Y194488D03*
X136688Y217588D03*
X136200Y273700D03*
X137795Y300215D03*
X139764Y312008D03*
X147643Y332039D03*
X133858Y322835D03*
X131400Y329300D03*
X133100Y338200D03*
X132100Y333100D03*
X149612Y356315D03*
X147643Y340566D03*
X137801Y341551D03*
X131894Y368127D03*
X157800Y146300D03*
X162800Y135600D03*
X166300Y147500D03*
X164100Y152200D03*
X155300Y159900D03*
X154300Y151200D03*
X167700Y157200D03*
X162300Y157000D03*
X151378Y174022D03*
X163000Y169300D03*
X151378Y193122D03*
X165643Y241062D03*
X155802Y238115D03*
X154817Y243036D03*
X159739Y247958D03*
X163800Y279900D03*
X158900Y278100D03*
X159328Y332677D03*
Y356299D03*
X171500Y52500D03*
X187300Y148800D03*
X175900Y147700D03*
X171747Y147553D03*
X182800Y141376D03*
X186700Y165000D03*
X172200Y156900D03*
X176100Y156000D03*
X179100Y154300D03*
X178436Y223346D03*
X171617Y219480D03*
X181388Y241062D03*
X178441Y229251D03*
X174499Y254516D03*
X185946Y277146D03*
X173954D03*
X184042Y333400D03*
X184253Y322047D03*
X184669Y345669D03*
X194500Y52700D03*
X189592Y145008D03*
X191300Y159300D03*
X199000Y159600D03*
X198600Y166300D03*
X191100Y170300D03*
X197946Y282146D03*
X200354Y277146D03*
X192000Y299400D03*
X199300Y311042D03*
X196500Y322047D03*
X217700Y52700D03*
X206800Y146200D03*
X211200Y159700D03*
X220200D03*
X220100Y166400D03*
X211400Y166300D03*
X217900Y264100D03*
X215562Y292146D03*
X220680Y285320D03*
X216732Y311482D03*
X209400Y305800D03*
X215300Y319700D03*
X224101Y302401D03*
X214300Y325900D03*
X209900Y322200D03*
X223200Y339000D03*
X212795Y361800D03*
X222400Y381500D03*
X233200Y146400D03*
X227300Y160000D03*
X242600Y159900D03*
X242614Y166794D03*
X226865Y166793D03*
X233200Y258200D03*
X232600Y253700D03*
X242800Y247100D03*
X241326Y260126D03*
X240400Y265300D03*
X236700Y265100D03*
X234449Y290351D03*
X242323Y290077D03*
X238400Y284400D03*
X227300Y295100D03*
X242323Y301800D03*
X230700Y315100D03*
X226300Y331800D03*
X244600Y367100D03*
X228400Y381700D03*
X247100Y53000D03*
X258400Y159900D03*
X258361Y166795D03*
X257600Y254500D03*
X247800Y278100D03*
X256900Y265195D03*
X257600Y318200D03*
X260800Y314000D03*
X256600Y345669D03*
X257800Y342100D03*
X245600Y345300D03*
X274600Y52500D03*
X273600Y146400D03*
X273900Y159800D03*
X274109Y166796D03*
X280300Y335300D03*
X267769Y345669D03*
X288200Y159900D03*
X301100Y166300D03*
X288000Y166400D03*
X302000Y52500D03*
X317000Y146300D03*
X302400Y159800D03*
X312200Y158500D03*
X318400Y166900D03*
X316433Y156166D03*
X312696Y209487D03*
X301889D03*
X313680Y228187D03*
X303081Y230978D03*
X312682Y249182D03*
X329500Y52700D03*
X320500Y158800D03*
X328200D03*
X336000D03*
X331500Y166700D03*
X332202Y156146D03*
X330409Y215120D03*
X324518Y217371D03*
X334767Y260827D03*
X333200Y274300D03*
X334952Y265748D03*
X334767Y270669D03*
X333224Y295276D03*
X354500Y52700D03*
X343300Y158700D03*
X351900D03*
X347900Y166600D03*
X347929Y156168D03*
X341432Y189630D03*
X357180Y189630D03*
X346157Y215120D03*
X345200Y272600D03*
X347000Y296600D03*
X345516Y357812D03*
X339373D03*
X351700Y382600D03*
X360600Y146800D03*
X359300Y158400D03*
X373600Y158700D03*
X372900Y166700D03*
X362000Y167000D03*
X363677Y156168D03*
X372928Y189632D03*
X361905Y215120D03*
X373600Y277100D03*
X361700Y274100D03*
X364050Y277550D03*
X374400Y273000D03*
X370900Y287800D03*
X373200Y290900D03*
X373400Y296200D03*
X360535Y292065D03*
X361300Y374200D03*
X377500Y52500D03*
X392600Y163200D03*
X378400Y163100D03*
X386400Y169600D03*
X388676Y189632D03*
X377653Y215120D03*
X387500Y286000D03*
X387935Y292065D03*
X387800Y373300D03*
X380000Y368000D03*
X402000Y52600D03*
X412914Y130160D03*
X397000Y146600D03*
X413898Y143940D03*
X407992Y142956D03*
X402700Y163300D03*
X396181Y158705D03*
X411437Y152566D03*
X406024Y159172D03*
X399200Y169600D03*
X410600Y169700D03*
X413106Y198669D03*
X411138Y214418D03*
X400881Y260865D03*
X400880Y266770D03*
Y271691D03*
X400880Y284487D03*
X406254Y350546D03*
X424400Y52700D03*
X426694Y129176D03*
X420074Y142686D03*
X429647Y142956D03*
X432100Y151800D03*
X432500Y162200D03*
X417218Y153858D03*
X423741Y166579D03*
X425194Y154299D03*
X433100Y177100D03*
X422700Y173000D03*
X423600Y180000D03*
X431808Y183905D03*
X418028Y185874D03*
X425192Y199379D03*
X419012Y199654D03*
X417513Y207997D03*
X418307Y225394D03*
X427753Y208631D03*
X430313Y222766D03*
X431858Y240157D03*
X431564Y235236D03*
X431837Y253937D03*
X431784Y267716D03*
X416339Y282939D03*
X439400Y53200D03*
X439900Y69400D03*
X439700Y88200D03*
Y108200D03*
X440200Y127100D03*
X439400Y141900D03*
X433700Y170400D03*
X450487Y185503D03*
X444582Y185502D03*
X442700Y204300D03*
X434761Y200638D03*
X436900Y219400D03*
X436200Y210200D03*
X452479Y217962D03*
Y211072D03*
X448542D03*
X443631Y220904D03*
X443620Y226820D03*
X456393Y185503D03*
X468204Y185480D03*
X462298D03*
X459369Y193354D03*
X459700Y202100D03*
X466900Y199100D03*
X460100Y224600D03*
X468204Y239592D03*
X462298Y239593D03*
X462944Y351544D03*
X458009Y356534D03*
X483952Y185504D03*
X489858Y185505D03*
X476078Y186488D03*
X480700Y224000D03*
X485592Y220915D03*
X486930Y211072D03*
X485960Y217837D03*
X483005Y240589D03*
X474134Y227805D03*
X483006Y252400D03*
X483005Y246495D03*
X478102Y265239D03*
Y275021D03*
X473163Y270116D03*
X484543Y309331D03*
X478637Y309330D03*
X488480Y327048D03*
Y334872D03*
X474724Y351630D03*
X495763Y185505D03*
X490400Y218300D03*
X490600Y211000D03*
X501800Y211100D03*
X508600Y211000D03*
X501995Y218515D03*
X505906Y221441D03*
X505221Y318148D03*
X502267Y356534D03*
X500291Y344715D03*
X503600Y372000D03*
X507600Y372200D03*
X508900Y376600D03*
X498266Y361234D03*
X509600Y218100D03*
X514791Y210640D03*
Y217530D03*
X519900Y362600D03*
G54D14*
X43307Y207677D03*
X51181D03*
X43307Y217520D03*
X51181D03*
G54D15*
X48300Y257500D03*
Y267500D03*
G54D16*
Y247500D03*
G54D17*
X96522Y161012D03*
X470293Y213573D03*
G54D18*
X504449Y282480D03*
Y300197D03*
X519803Y278937D03*
X529803Y282480D03*
Y300197D03*
X519803Y303740D03*
X542795Y281339D03*
Y301339D03*
G54D19*
G01X58000Y152500D02*
X57700Y152800D01*
Y159626D01*
X58000Y159926D01*
G01X78600Y285500D02*
X65396D01*
X59698Y291198D01*
G01X79400Y161996D02*
Y156500D01*
X96130Y139770D01*
X101383D01*
G01X73746Y132746D02*
X73891Y132600D01*
X101400D01*
X105600Y136800D01*
X129990D01*
G01X103346Y300213D02*
X96733Y293600D01*
X89500D01*
X81400Y285500D01*
X78600D01*
G01X84226Y372334D02*
X83800Y371908D01*
Y354000D01*
X85914Y351886D01*
X89078D01*
G01X123800Y358300D02*
X123700D01*
X121800Y356400D01*
X88501D01*
G01X105906Y111808D02*
X139370Y78344D01*
Y64559D01*
G01X98395Y119631D02*
X106009Y127246D01*
X111230D01*
X112992Y129008D01*
G01X105200Y146000D02*
Y181100D01*
X100300Y186000D01*
Y194700D01*
X104000Y198400D01*
G01X127953Y300215D02*
X103348D01*
X103346Y300213D01*
G01X142588Y194488D02*
X132865D01*
X128800Y198554D01*
G01X129793Y148000D02*
Y167593D01*
G01D02*
X135969D01*
X142588Y174212D01*
G01D02*
Y194488D01*
G01X136688Y217588D02*
X139776Y214500D01*
X165700D01*
G01X156748Y374900D02*
Y357396D01*
X156728Y357376D01*
Y355222D01*
X156748Y355202D01*
Y339148D01*
X149639Y332039D01*
X147643D01*
G01X149612Y356315D02*
X149359Y356568D01*
Y374900D01*
G01X216732Y311482D02*
X207065D01*
X196500Y322047D01*
G01X196539Y372300D02*
X196500Y372261D01*
Y322047D01*
G01X215562Y292146D02*
Y310312D01*
X216732Y311482D01*
G01X212795Y361800D02*
Y372300D01*
G01X256600Y345669D02*
X254900Y343969D01*
Y305700D01*
X251000Y301800D01*
X242323D01*
G01X256778Y372400D02*
Y345848D01*
X256600Y345669D01*
G01X312682Y249182D02*
X326282D01*
X331400Y254300D01*
Y270580D01*
X331400Y272500D01*
X333200Y274300D01*
G01D02*
Y295251D01*
X333224Y295276D01*
G01X360202Y360998D02*
X333224Y334022D01*
Y295276D01*
G01X406024Y159172D02*
Y209304D01*
X411138Y214418D01*
G01X406400Y377900D02*
X406254Y377754D01*
Y350546D01*
G01X456393Y185503D02*
Y321707D01*
X455600Y322500D01*
G01X476078Y186488D02*
X469212Y193354D01*
X459369D01*
G01X529803Y300197D02*
X523346D01*
X519803Y303740D01*
M02*
